<?xml version="1.0" encoding="UTF-8"?>
<svg xmlns="http://www.w3.org/2000/svg" xmlns:xlink="http://www.w3.org/1999/xlink" width="24px" height="24px" viewBox="0 0 24 24" version="1.1">
<g id="surface1">
<path style=" stroke:none;fill-rule:nonzero;fill:rgb(0%,0%,0%);fill-opacity:1;" d="M 17.15625 18.5625 C 16.898438 18.5625 16.6875 18.773438 16.6875 19.03125 C 16.6875 19.289062 16.898438 19.5 17.15625 19.5 C 17.414062 19.5 17.625 19.289062 17.625 19.03125 C 17.625 18.773438 17.414062 18.5625 17.15625 18.5625 Z M 17.15625 18.5625 "/>
<path style=" stroke:none;fill-rule:nonzero;fill:rgb(0%,0%,0%);fill-opacity:1;" d="M 18.308594 17.046875 L 16.082031 16.304688 L 15.28125 14.703125 C 16.003906 13.972656 16.503906 13 16.671875 11.988281 L 16.773438 11.390625 L 17.625 11.390625 C 18.402344 11.390625 19.03125 10.761719 19.03125 9.984375 L 19.03125 7.03125 C 19.03125 3.152344 15.878906 0 12 0 C 8.113281 0 4.96875 3.144531 4.96875 7.03125 L 4.96875 9.984375 C 4.96875 10.59375 5.359375 11.117188 5.90625 11.308594 L 5.90625 11.859375 C 5.90625 12.636719 6.535156 13.265625 7.3125 13.265625 L 7.722656 13.265625 C 7.925781 13.707031 8.191406 14.117188 8.511719 14.484375 C 8.578125 14.558594 8.644531 14.632812 8.71875 14.707031 L 7.917969 16.304688 L 5.691406 17.046875 C 3.097656 17.910156 1.21875 20.636719 1.21875 23.53125 C 1.21875 23.789062 1.429688 24 1.6875 24 L 22.3125 24 C 22.570312 24 22.78125 23.789062 22.78125 23.53125 C 22.78125 20.636719 20.902344 17.910156 18.308594 17.046875 Z M 18.09375 9.984375 C 18.09375 10.242188 17.882812 10.453125 17.625 10.453125 L 16.910156 10.453125 C 17.027344 9.53125 17.109375 8.546875 17.140625 7.582031 C 17.140625 7.554688 17.140625 7.527344 17.144531 7.5 L 18.09375 7.5 Z M 6.375 10.453125 C 6.117188 10.453125 5.90625 10.242188 5.90625 9.984375 L 5.90625 7.5 L 6.859375 7.5 C 6.859375 7.550781 6.859375 7.597656 6.863281 7.648438 C 6.863281 7.648438 6.863281 7.652344 6.863281 7.652344 C 6.894531 8.59375 6.972656 9.550781 7.089844 10.453125 Z M 7.3125 12.328125 C 7.054688 12.328125 6.84375 12.117188 6.84375 11.859375 L 6.84375 11.390625 L 7.226562 11.390625 L 7.328125 11.988281 C 7.347656 12.101562 7.371094 12.214844 7.398438 12.328125 Z M 6.84375 6.5625 L 5.925781 6.5625 C 6.160156 3.421875 8.785156 0.9375 12 0.9375 C 15.203125 0.9375 17.835938 3.421875 18.074219 6.5625 L 17.15625 6.5625 C 17.121094 3.972656 15.011719 1.875 12.417969 1.875 L 11.582031 1.875 C 8.988281 1.875 6.878906 3.972656 6.84375 6.5625 Z M 11.582031 2.8125 L 12.417969 2.8125 C 14.519531 2.8125 16.21875 4.53125 16.21875 6.628906 C 16.21875 6.777344 16.21875 6.90625 16.214844 7.019531 C 16.214844 7.023438 16.214844 7.023438 16.214844 7.027344 L 15.628906 6.941406 C 14.035156 6.714844 12.53125 5.960938 11.394531 4.824219 C 11.304688 4.738281 11.1875 4.6875 11.0625 4.6875 C 9.804688 4.6875 8.597656 5.261719 7.800781 6.230469 C 8 4.320312 9.613281 2.8125 11.582031 2.8125 Z M 8.367188 12.328125 C 8.132812 11.546875 7.867188 9.25 7.804688 7.777344 L 8.4375 6.9375 C 9.015625 6.164062 9.917969 5.683594 10.878906 5.628906 C 12.140625 6.832031 13.769531 7.625 15.496094 7.871094 L 16.1875 7.96875 C 16.140625 8.949219 16.046875 9.929688 15.910156 10.832031 C 15.910156 10.835938 15.910156 10.835938 15.910156 10.835938 C 15.867188 11.125 15.832031 11.3125 15.746094 11.835938 C 15.5 13.324219 14.386719 14.667969 12.921875 15.035156 C 12.316406 15.1875 11.683594 15.1875 11.078125 15.035156 C 10.164062 14.808594 9.324219 14.175781 8.78125 13.265625 L 9.738281 13.265625 C 9.929688 13.8125 10.453125 14.203125 11.0625 14.203125 L 12 14.203125 C 12.777344 14.203125 13.40625 13.574219 13.40625 12.796875 C 13.40625 12.019531 12.777344 11.390625 12 11.390625 L 11.0625 11.390625 C 10.4375 11.390625 9.925781 11.792969 9.734375 12.328125 Z M 11.023438 15.984375 C 11.34375 16.054688 11.671875 16.085938 12 16.085938 C 12.257812 16.085938 12.511719 16.066406 12.765625 16.023438 L 11.9375 16.898438 Z M 11.292969 17.582031 L 9.808594 19.152344 C 9.398438 18.371094 9.046875 17.554688 8.757812 16.71875 L 9.316406 15.605469 Z M 14.605469 15.445312 L 15.242188 16.71875 C 14.953125 17.554688 14.601562 18.371094 14.191406 19.15625 L 12.601562 17.5625 Z M 10.59375 12.796875 C 10.59375 12.539062 10.804688 12.328125 11.0625 12.328125 L 12 12.328125 C 12.257812 12.328125 12.46875 12.539062 12.46875 12.796875 C 12.46875 13.054688 12.257812 13.265625 12 13.265625 L 11.0625 13.265625 C 10.804688 13.265625 10.59375 13.054688 10.59375 12.796875 Z M 2.175781 23.0625 C 2.359375 20.742188 3.90625 18.628906 5.984375 17.9375 L 7.960938 17.277344 C 8.320312 18.277344 8.769531 19.25 9.292969 20.171875 C 9.292969 20.175781 9.296875 20.175781 9.296875 20.175781 C 9.679688 20.851562 10.109375 21.511719 10.578125 22.136719 L 11.15625 23.0625 Z M 12 22.644531 L 11.363281 21.625 C 11.355469 21.613281 11.347656 21.601562 11.339844 21.589844 C 10.960938 21.085938 10.609375 20.554688 10.285156 20.011719 L 11.957031 18.246094 L 13.71875 20.007812 C 13.394531 20.550781 13.039062 21.085938 12.660156 21.589844 C 12.636719 21.621094 12.667969 21.574219 12 22.644531 Z M 12.84375 23.0625 L 13.421875 22.136719 C 13.890625 21.507812 14.324219 20.84375 14.710938 20.160156 C 14.714844 20.15625 14.71875 20.152344 14.71875 20.148438 C 15.238281 19.234375 15.683594 18.269531 16.039062 17.277344 L 18.015625 17.9375 C 20.09375 18.628906 21.640625 20.742188 21.824219 23.0625 Z M 12.84375 23.0625 "/>
<path style=" stroke:none;fill-rule:nonzero;fill:rgb(0%,0%,0%);fill-opacity:1;" d="M 20.417969 21.164062 C 20.101562 20.539062 19.644531 19.980469 19.089844 19.554688 C 18.882812 19.398438 18.589844 19.433594 18.433594 19.640625 C 18.273438 19.84375 18.3125 20.140625 18.519531 20.296875 C 18.960938 20.636719 19.328125 21.082031 19.578125 21.585938 C 19.695312 21.816406 19.976562 21.910156 20.207031 21.792969 C 20.4375 21.679688 20.53125 21.398438 20.417969 21.164062 Z M 20.417969 21.164062 "/>
</g>
</svg>
