<?xml version="1.0" encoding="UTF-8"?>
<svg xmlns="http://www.w3.org/2000/svg" xmlns:xlink="http://www.w3.org/1999/xlink" width="24px" height="24px" viewBox="0 0 24 24" version="1.1">
<g id="surface1">
<path style=" stroke:none;fill-rule:nonzero;fill:rgb(0%,0%,0%);fill-opacity:1;" d="M 5.601562 15.800781 C 4.277344 15.800781 3.199219 16.875 3.199219 18.199219 C 3.199219 19.523438 4.277344 20.601562 5.601562 20.601562 C 6.921875 20.601562 8 19.523438 8 18.199219 C 8 16.875 6.921875 15.800781 5.601562 15.800781 Z M 5.601562 19.800781 C 4.71875 19.800781 4 19.082031 4 18.199219 C 4 17.316406 4.71875 16.601562 5.601562 16.601562 C 6.480469 16.601562 7.199219 17.316406 7.199219 18.199219 C 7.199219 19.082031 6.480469 19.800781 5.601562 19.800781 Z M 5.601562 19.800781 "/>
<path style=" stroke:none;fill-rule:nonzero;fill:rgb(0%,0%,0%);fill-opacity:1;" d="M 19.199219 15.800781 C 17.875 15.800781 16.800781 16.875 16.800781 18.199219 C 16.800781 19.523438 17.875 20.601562 19.199219 20.601562 C 20.523438 20.601562 21.601562 19.523438 21.601562 18.199219 C 21.601562 16.875 20.523438 15.800781 19.199219 15.800781 Z M 19.199219 19.800781 C 18.316406 19.800781 17.601562 19.082031 17.601562 18.199219 C 17.601562 17.316406 18.316406 16.601562 19.199219 16.601562 C 20.082031 16.601562 20.800781 17.316406 20.800781 18.199219 C 20.800781 19.082031 20.082031 19.800781 19.199219 19.800781 Z M 19.199219 19.800781 "/>
<path style=" stroke:none;fill-rule:nonzero;fill:rgb(0%,0%,0%);fill-opacity:1;" d="M 23.9375 13.582031 L 20.335938 7.984375 C 20.261719 7.871094 20.136719 7.800781 20 7.800781 L 15.601562 7.800781 C 15.378906 7.800781 15.199219 7.980469 15.199219 8.199219 L 15.199219 18.199219 C 15.199219 18.421875 15.378906 18.601562 15.601562 18.601562 L 17.199219 18.601562 L 17.199219 17.800781 L 16 17.800781 L 16 8.601562 L 19.78125 8.601562 L 23.199219 13.917969 L 23.199219 17.800781 L 21.199219 17.800781 L 21.199219 18.601562 L 23.601562 18.601562 C 23.820312 18.601562 24 18.421875 24 18.199219 L 24 13.800781 C 24 13.722656 23.976562 13.648438 23.9375 13.582031 Z M 23.9375 13.582031 "/>
<path style=" stroke:none;fill-rule:nonzero;fill:rgb(0%,0%,0%);fill-opacity:1;" d="M 17.601562 13 L 17.601562 10.199219 L 20.800781 10.199219 L 20.800781 9.398438 L 17.199219 9.398438 C 16.980469 9.398438 16.800781 9.578125 16.800781 9.800781 L 16.800781 13.398438 C 16.800781 13.621094 16.980469 13.800781 17.199219 13.800781 L 23.199219 13.800781 L 23.199219 13 Z M 17.601562 13 "/>
<path style=" stroke:none;fill-rule:nonzero;fill:rgb(0%,0%,0%);fill-opacity:1;" d="M 15.601562 5 L 0.398438 5 C 0.179688 5 0 5.179688 0 5.398438 L 0 18.199219 C 0 18.421875 0.179688 18.601562 0.398438 18.601562 L 3.601562 18.601562 L 3.601562 17.800781 L 0.800781 17.800781 L 0.800781 5.800781 L 15.199219 5.800781 L 15.199219 17.800781 L 7.601562 17.800781 L 7.601562 18.601562 L 15.601562 18.601562 C 15.820312 18.601562 16 18.421875 16 18.199219 L 16 5.398438 C 16 5.179688 15.820312 5 15.601562 5 Z M 15.601562 5 "/>
<path style=" stroke:none;fill-rule:nonzero;fill:rgb(0%,0%,0%);fill-opacity:1;" d="M 0.398438 16.199219 L 2.800781 16.199219 L 2.800781 17 L 0.398438 17 Z M 0.398438 16.199219 "/>
<path style=" stroke:none;fill-rule:nonzero;fill:rgb(0%,0%,0%);fill-opacity:1;" d="M 8.398438 16.199219 L 15.199219 16.199219 L 15.199219 17 L 8.398438 17 Z M 8.398438 16.199219 "/>
<path style=" stroke:none;fill-rule:nonzero;fill:rgb(0%,0%,0%);fill-opacity:1;" d="M 22 16.199219 L 23.601562 16.199219 L 23.601562 17 L 22 17 Z M 22 16.199219 "/>
<path style=" stroke:none;fill-rule:nonzero;fill:rgb(0%,0%,0%);fill-opacity:1;" d="M 1.601562 6.601562 L 15.601562 6.601562 L 15.601562 7.398438 L 1.601562 7.398438 Z M 1.601562 6.601562 "/>
<path style=" stroke:none;fill-rule:nonzero;fill:rgb(0%,0%,0%);fill-opacity:1;" d="M 5.199219 17.800781 L 6 17.800781 L 6 18.601562 L 5.199219 18.601562 Z M 5.199219 17.800781 "/>
<path style=" stroke:none;fill-rule:nonzero;fill:rgb(0%,0%,0%);fill-opacity:1;" d="M 18.800781 17.800781 L 19.601562 17.800781 L 19.601562 18.601562 L 18.800781 18.601562 Z M 18.800781 17.800781 "/>
<path style=" stroke:none;fill-rule:nonzero;fill:rgb(0%,0%,0%);fill-opacity:1;" d="M 1.601562 3.398438 L 7.199219 3.398438 L 7.199219 4.199219 L 1.601562 4.199219 Z M 1.601562 3.398438 "/>
<path style=" stroke:none;fill-rule:nonzero;fill:rgb(0%,0%,0%);fill-opacity:1;" d="M 0 3.398438 L 0.800781 3.398438 L 0.800781 4.199219 L 0 4.199219 Z M 0 3.398438 "/>
</g>
</svg>
