<?xml version="1.0" encoding="UTF-8"?>
<svg xmlns="http://www.w3.org/2000/svg" xmlns:xlink="http://www.w3.org/1999/xlink" width="24px" height="24px" viewBox="0 0 24 24" version="1.1">
<g id="surface1">
<path style=" stroke:none;fill-rule:nonzero;fill:rgb(0%,0%,0%);fill-opacity:1;" d="M 10.5 7.5 L 10.5 6 L 1.5 6 C 0.671875 6 0 6.671875 0 7.5 L 0 10.5 L 10.816406 10.5 C 10.609375 9.582031 10.5 8.597656 10.5 7.5 Z M 10.5 7.5 "/>
<path style=" stroke:none;fill-rule:nonzero;fill:rgb(0%,0%,0%);fill-opacity:1;" d="M 23.9375 13.5 C 22.914062 15.074219 21.355469 16.417969 19.121094 17.699219 C 18.777344 17.898438 18.390625 18 18 18 C 17.609375 18 17.222656 17.898438 16.882812 17.703125 C 14.648438 16.417969 13.089844 15.074219 12.066406 13.5 L 0 13.5 L 0 21 C 0 21.828125 0.671875 22.5 1.5 22.5 L 22.5 22.5 C 23.328125 22.5 24 21.828125 24 21 L 24 13.5 Z M 6.75 18 L 3.75 18 C 3.335938 18 3 17.664062 3 17.25 C 3 16.835938 3.335938 16.5 3.75 16.5 L 6.75 16.5 C 7.164062 16.5 7.5 16.835938 7.5 17.25 C 7.5 17.664062 7.164062 18 6.75 18 Z M 6.75 18 "/>
<path style=" stroke:none;fill-rule:nonzero;fill:rgb(0%,0%,0%);fill-opacity:1;" d="M 23.546875 3.8125 L 18.296875 1.5625 C 18.105469 1.480469 17.894531 1.480469 17.703125 1.5625 L 12.453125 3.8125 C 12.179688 3.929688 12 4.199219 12 4.5 L 12 7.5 C 12 11.625 13.527344 14.039062 17.625 16.402344 C 17.742188 16.464844 17.871094 16.5 18 16.5 C 18.128906 16.5 18.257812 16.464844 18.375 16.402344 C 22.472656 14.042969 24 11.632812 24 7.5 L 24 4.5 C 24 4.199219 23.820312 3.929688 23.546875 3.8125 Z M 20.835938 7.21875 L 17.835938 10.96875 C 17.691406 11.144531 17.476562 11.25 17.25 11.25 C 17.238281 11.25 17.226562 11.25 17.21875 11.25 C 16.980469 11.238281 16.757812 11.117188 16.625 10.917969 L 15.125 8.667969 C 14.898438 8.320312 14.988281 7.855469 15.335938 7.628906 C 15.675781 7.398438 16.144531 7.488281 16.375 7.835938 L 17.304688 9.230469 L 19.664062 6.28125 C 19.921875 5.960938 20.394531 5.910156 20.71875 6.167969 C 21.042969 6.421875 21.09375 6.894531 20.835938 7.21875 Z M 20.835938 7.21875 "/>
</g>
</svg>
