<?xml version="1.0" encoding="UTF-8"?>
<svg xmlns="http://www.w3.org/2000/svg" xmlns:xlink="http://www.w3.org/1999/xlink" width="24px" height="24px" viewBox="0 0 24 24" version="1.1">
<g id="surface1">
<path style=" stroke:none;fill-rule:nonzero;fill:rgb(0%,0%,0%);fill-opacity:1;" d="M 15.960938 12 L 23.382812 4.574219 C 24.203125 3.753906 24.203125 2.425781 23.382812 1.605469 L 22.394531 0.617188 C 21.574219 -0.203125 20.246094 -0.203125 19.425781 0.617188 L 12 8.042969 L 4.574219 0.617188 C 3.753906 -0.207031 2.425781 -0.207031 1.605469 0.617188 L 0.617188 1.605469 C -0.207031 2.425781 -0.207031 3.753906 0.617188 4.574219 L 8.042969 12 L 0.617188 19.425781 C -0.203125 20.246094 -0.203125 21.574219 0.617188 22.394531 L 1.605469 23.382812 C 2.425781 24.203125 3.757812 24.203125 4.574219 23.382812 L 12 15.960938 L 19.425781 23.382812 C 20.246094 24.203125 21.574219 24.203125 22.394531 23.382812 L 23.382812 22.394531 C 24.203125 21.574219 24.203125 20.246094 23.382812 19.425781 Z M 15.960938 12 "/>
</g>
</svg>
