<?xml version="1.0" encoding="UTF-8"?>
<svg xmlns="http://www.w3.org/2000/svg" xmlns:xlink="http://www.w3.org/1999/xlink" width="24px" height="24px" viewBox="0 0 24 24" version="1.1">
<g id="surface1">
<path style=" stroke:none;fill-rule:nonzero;fill:rgb(85.490196%,86.666667%,64.313725%);fill-opacity:1;" d="M 6 20 L 22.800781 20 L 22.800781 21.597656 L 6 21.597656 Z M 6 20 "/>
<path style=" stroke:none;fill-rule:nonzero;fill:rgb(82.745098%,82.745098%,82.745098%);fill-opacity:1;" d="M 5.199219 21.597656 L 23.601562 21.597656 L 23.601562 23.199219 L 5.199219 23.199219 Z M 5.199219 21.597656 "/>
<path style=" stroke:none;fill-rule:nonzero;fill:rgb(82.745098%,82.745098%,82.745098%);fill-opacity:1;" d="M 15.601562 8 L 23.601562 8 L 23.601562 9.597656 L 15.601562 9.597656 Z M 15.601562 8 "/>
<path style=" stroke:none;fill-rule:nonzero;fill:rgb(91.372549%,92.54902%,81.176471%);fill-opacity:1;" d="M 15.601562 9.597656 L 22.398438 9.597656 L 22.398438 20 L 15.601562 20 Z M 15.601562 9.597656 "/>
<path style=" stroke:none;fill-rule:nonzero;fill:rgb(46.27451%,72.156863%,16.862745%);fill-opacity:1;" d="M 0.398438 9.597656 L 14.800781 9.597656 L 14.800781 18 L 0.398438 18 Z M 0.398438 9.597656 "/>
<path style=" stroke:none;fill-rule:nonzero;fill:rgb(70.980392%,83.921569%,46.27451%);fill-opacity:1;" d="M 13.199219 16 L 13.199219 12 C 12.757812 12 12.398438 11.640625 12.398438 11.199219 L 2.800781 11.199219 C 2.800781 11.640625 2.441406 12 2 12 L 2 16 C 2.441406 16 2.800781 16.359375 2.800781 16.800781 L 12.398438 16.800781 C 12.398438 16.359375 12.757812 16 13.199219 16 Z M 13.199219 16 "/>
<path style=" stroke:none;fill-rule:nonzero;fill:rgb(98.431373%,96.862745%,92.941176%);fill-opacity:1;" d="M 13.601562 13.199219 L 13.601562 12 C 13.601562 11.777344 13.421875 11.597656 13.199219 11.597656 C 12.980469 11.597656 12.800781 11.421875 12.800781 11.199219 C 12.800781 10.976562 12.621094 10.800781 12.398438 10.800781 L 11.199219 10.800781 L 11.199219 11.597656 L 12.070312 11.597656 C 12.1875 11.941406 12.460938 12.210938 12.800781 12.332031 L 12.800781 13.199219 Z M 13.601562 13.199219 "/>
<path style=" stroke:none;fill-rule:nonzero;fill:rgb(98.431373%,96.862745%,92.941176%);fill-opacity:1;" d="M 13.601562 16 L 13.601562 14.800781 L 12.800781 14.800781 L 12.800781 15.667969 C 12.460938 15.789062 12.1875 16.058594 12.070312 16.398438 L 11.199219 16.398438 L 11.199219 17.199219 L 12.398438 17.199219 C 12.621094 17.199219 12.800781 17.019531 12.800781 16.800781 C 12.800781 16.578125 12.980469 16.398438 13.199219 16.398438 C 13.421875 16.398438 13.601562 16.21875 13.601562 16 Z M 13.601562 16 "/>
<path style=" stroke:none;fill-rule:nonzero;fill:rgb(98.431373%,96.862745%,92.941176%);fill-opacity:1;" d="M 11.601562 13.597656 L 12.398438 13.597656 L 12.398438 14.398438 L 11.601562 14.398438 Z M 11.601562 13.597656 "/>
<path style=" stroke:none;fill-rule:nonzero;fill:rgb(98.431373%,96.862745%,92.941176%);fill-opacity:1;" d="M 1.601562 13.199219 L 1.601562 12 C 1.601562 11.777344 1.777344 11.597656 2 11.597656 C 2.21875 11.597656 2.398438 11.421875 2.398438 11.199219 C 2.398438 10.976562 2.578125 10.800781 2.800781 10.800781 L 4 10.800781 L 4 11.597656 L 3.132812 11.597656 C 3.011719 11.941406 2.742188 12.210938 2.398438 12.332031 L 2.398438 13.199219 Z M 1.601562 13.199219 "/>
<path style=" stroke:none;fill-rule:nonzero;fill:rgb(98.431373%,96.862745%,92.941176%);fill-opacity:1;" d="M 1.601562 16 L 1.601562 14.800781 L 2.398438 14.800781 L 2.398438 15.667969 C 2.742188 15.789062 3.011719 16.058594 3.132812 16.398438 L 4 16.398438 L 4 17.199219 L 2.800781 17.199219 C 2.578125 17.199219 2.398438 17.019531 2.398438 16.800781 C 2.398438 16.578125 2.21875 16.398438 2 16.398438 C 1.777344 16.398438 1.601562 16.21875 1.601562 16 Z M 1.601562 16 "/>
<path style=" stroke:none;fill-rule:nonzero;fill:rgb(98.431373%,96.862745%,92.941176%);fill-opacity:1;" d="M 2.800781 13.597656 L 3.601562 13.597656 L 3.601562 14.398438 L 2.800781 14.398438 Z M 2.800781 13.597656 "/>
<path style=" stroke:none;fill-rule:nonzero;fill:rgb(98.431373%,96.862745%,92.941176%);fill-opacity:1;" d="M 10.398438 14 C 10.398438 15.546875 9.144531 16.800781 7.601562 16.800781 C 6.054688 16.800781 4.800781 15.546875 4.800781 14 C 4.800781 12.453125 6.054688 11.199219 7.601562 11.199219 C 9.144531 11.199219 10.398438 12.453125 10.398438 14 Z M 10.398438 14 "/>
<path style=" stroke:none;fill-rule:nonzero;fill:rgb(29.803922%,45.490196%,39.215686%);fill-opacity:1;" d="M 7.199219 14.800781 L 6.398438 14.800781 L 6.398438 15.597656 C 6.398438 15.820312 6.578125 16 6.800781 16 L 7.199219 16 L 7.199219 16.398438 L 8 16.398438 L 8 16 L 8.398438 16 C 8.621094 16 8.800781 15.820312 8.800781 15.597656 L 8.800781 14 C 8.800781 13.777344 8.621094 13.597656 8.398438 13.597656 L 7.199219 13.597656 L 7.199219 12.800781 L 8 12.800781 L 8 13.199219 L 8.800781 13.199219 L 8.800781 12.398438 C 8.800781 12.179688 8.621094 12 8.398438 12 L 8 12 L 8 11.597656 L 7.199219 11.597656 L 7.199219 12 L 6.800781 12 C 6.578125 12 6.398438 12.179688 6.398438 12.398438 L 6.398438 14 C 6.398438 14.21875 6.578125 14.398438 6.800781 14.398438 L 8 14.398438 L 8 15.199219 L 7.199219 15.199219 Z M 7.199219 14.800781 "/>
<path style=" stroke:none;fill-rule:nonzero;fill:rgb(87.843137%,79.607843%,2.745098%);fill-opacity:1;" d="M 17.199219 12 L 18 12.800781 L 17.199219 12.800781 Z M 17.199219 12 "/>
<path style=" stroke:none;fill-rule:nonzero;fill:rgb(87.843137%,79.607843%,2.745098%);fill-opacity:1;" d="M 16 13.597656 L 16 15.199219 L 18 15.199219 L 18 16.800781 L 17.199219 17.597656 L 17.199219 16 L 15.199219 16 L 15.199219 13.597656 Z M 16 13.597656 "/>
<path style=" stroke:none;fill-rule:nonzero;fill:rgb(98.823529%,93.333333%,12.941176%);fill-opacity:1;" d="M 17.199219 12.800781 L 18 12.800781 L 18 11.199219 L 20.800781 14 L 18 16.800781 L 18 15.199219 L 16 15.199219 L 16 12.800781 Z M 17.199219 12.800781 "/>
<path style=" stroke:none;fill-rule:nonzero;fill:rgb(85.490196%,86.666667%,64.313725%);fill-opacity:1;" d="M 15.601562 9.597656 L 22.800781 9.597656 L 22.800781 10.398438 L 15.601562 10.398438 Z M 15.601562 9.597656 "/>
<path style=" stroke:none;fill-rule:nonzero;fill:rgb(98.823529%,93.333333%,12.941176%);fill-opacity:1;" d="M 20.398438 16.800781 L 21.199219 16.800781 L 21.199219 18.800781 L 20.398438 18.800781 Z M 20.398438 16.800781 "/>
<path style=" stroke:none;fill-rule:nonzero;fill:rgb(98.823529%,93.333333%,12.941176%);fill-opacity:1;" d="M 18.800781 18 L 19.601562 18 L 19.601562 18.800781 L 18.800781 18.800781 Z M 18.800781 18 "/>
<path style=" stroke:none;fill-rule:nonzero;fill:rgb(98.823529%,93.333333%,12.941176%);fill-opacity:1;" d="M 16 17.199219 L 16.800781 17.199219 L 16.800781 18.800781 L 16 18.800781 Z M 16 17.199219 "/>
<path style=" stroke:none;fill-rule:nonzero;fill:rgb(90.196078%,90.196078%,90.196078%);fill-opacity:1;" d="M 9.03125 4.632812 L 10.144531 5.742188 L 11.199219 6.800781 L 11.199219 8 L 22.800781 8 L 22.800781 6.800781 L 14.398438 0.800781 Z M 9.03125 4.632812 "/>
<path style=" stroke:none;fill-rule:nonzero;fill:rgb(90.196078%,90.196078%,90.196078%);fill-opacity:1;" d="M 6.398438 6.800781 L 6.398438 8 L 9.199219 8 L 8 6.800781 Z M 6.398438 6.800781 "/>
<path style=" stroke:none;fill-rule:nonzero;fill:rgb(82.745098%,82.745098%,82.745098%);fill-opacity:1;" d="M 15.601562 6.398438 L 19.601562 6.398438 L 16.273438 4.09375 C 16.355469 4.316406 16.398438 4.550781 16.398438 4.800781 C 16.398438 5.453125 16.085938 6.035156 15.601562 6.398438 Z M 15.601562 6.398438 "/>
<path style=" stroke:none;fill-rule:nonzero;fill:rgb(82.745098%,82.745098%,82.745098%);fill-opacity:1;" d="M 10.144531 5.742188 L 10.800781 6.398438 L 13.199219 6.398438 C 12.714844 6.035156 12.398438 5.453125 12.398438 4.800781 C 12.398438 4.550781 12.445312 4.316406 12.527344 4.09375 Z M 10.144531 5.742188 "/>
<path style=" stroke:none;fill-rule:nonzero;fill:rgb(29.803922%,45.490196%,39.215686%);fill-opacity:1;" d="M 0.398438 18 L 14.800781 18 L 14.800781 19.199219 L 0.398438 19.199219 Z M 0.398438 18 "/>
<path style=" stroke:none;fill-rule:nonzero;fill:rgb(84.705882%,59.607843%,40.784314%);fill-opacity:1;" d="M 6.800781 10.398438 L 7.601562 10.398438 L 7.601562 11.199219 L 6 11.199219 L 2.800781 8 L 0.398438 8 L 0.398438 6 L 2.398438 6 Z M 6.800781 10.398438 "/>
<path style=" stroke:none;fill-rule:nonzero;fill:rgb(84.705882%,59.607843%,40.784314%);fill-opacity:1;" d="M 8 5.597656 L 10 7.199219 L 10 9.597656 L 9.199219 9.597656 L 9.199219 8 L 8 6.800781 L 6.398438 6.800781 L 6.398438 5.597656 Z M 8 5.597656 "/>
<path style=" stroke:none;fill-rule:nonzero;fill:rgb(87.45098%,69.803922%,54.509804%);fill-opacity:1;" d="M 8.398438 4 L 9.03125 4.632812 L 10.144531 5.742188 L 11.199219 6.800781 L 11.199219 9.597656 L 10 9.597656 L 10 7.199219 L 8 5.597656 L 6.398438 5.597656 L 6.398438 8.398438 L 7.601562 9.597656 L 7.601562 10.398438 L 6.800781 10.398438 L 2.398438 6 L 0.398438 6 L 0.398438 4 Z M 8.398438 4 "/>
<path style=" stroke:none;fill-rule:nonzero;fill:rgb(0%,0%,0%);fill-opacity:1;" d="M 11.199219 11.597656 L 12.070312 11.597656 C 12.1875 11.941406 12.460938 12.210938 12.800781 12.332031 L 12.800781 13.199219 L 13.601562 13.199219 L 13.601562 12 C 13.601562 11.777344 13.421875 11.597656 13.199219 11.597656 C 12.980469 11.597656 12.800781 11.421875 12.800781 11.199219 C 12.800781 10.976562 12.621094 10.800781 12.398438 10.800781 L 11.199219 10.800781 Z M 11.199219 11.597656 "/>
<path style=" stroke:none;fill-rule:nonzero;fill:rgb(0%,0%,0%);fill-opacity:1;" d="M 12.800781 15.667969 C 12.460938 15.789062 12.1875 16.058594 12.070312 16.398438 L 11.199219 16.398438 L 11.199219 17.199219 L 12.398438 17.199219 C 12.621094 17.199219 12.800781 17.019531 12.800781 16.800781 C 12.800781 16.578125 12.980469 16.398438 13.199219 16.398438 C 13.421875 16.398438 13.601562 16.21875 13.601562 16 L 13.601562 14.800781 L 12.800781 14.800781 Z M 12.800781 15.667969 "/>
<path style=" stroke:none;fill-rule:nonzero;fill:rgb(0%,0%,0%);fill-opacity:1;" d="M 2.398438 11.199219 C 2.398438 11.421875 2.21875 11.597656 2 11.597656 C 1.777344 11.597656 1.601562 11.777344 1.601562 12 L 1.601562 13.199219 L 2.398438 13.199219 L 2.398438 12.332031 C 2.742188 12.210938 3.011719 11.941406 3.132812 11.597656 L 4 11.597656 L 4 10.800781 L 2.800781 10.800781 C 2.578125 10.800781 2.398438 10.976562 2.398438 11.199219 Z M 2.398438 11.199219 "/>
<path style=" stroke:none;fill-rule:nonzero;fill:rgb(0%,0%,0%);fill-opacity:1;" d="M 2.398438 15.667969 L 2.398438 14.800781 L 1.601562 14.800781 L 1.601562 16 C 1.601562 16.21875 1.777344 16.398438 2 16.398438 C 2.21875 16.398438 2.398438 16.578125 2.398438 16.800781 C 2.398438 17.019531 2.578125 17.199219 2.800781 17.199219 L 4 17.199219 L 4 16.398438 L 3.132812 16.398438 C 3.011719 16.058594 2.742188 15.789062 2.398438 15.667969 Z M 2.398438 15.667969 "/>
<path style=" stroke:none;fill-rule:nonzero;fill:rgb(0%,0%,0%);fill-opacity:1;" d="M 9.0625 10.847656 L 8.683594 11.550781 C 9.597656 12.042969 10.144531 12.960938 10.144531 14 C 10.144531 15.039062 9.597656 15.953125 8.683594 16.445312 L 9.0625 17.152344 C 10.242188 16.515625 10.945312 15.339844 10.945312 14 C 10.945312 12.660156 10.242188 11.480469 9.0625 10.847656 Z M 9.0625 10.847656 "/>
<path style=" stroke:none;fill-rule:nonzero;fill:rgb(0%,0%,0%);fill-opacity:1;" d="M 11.601562 13.597656 L 12.398438 13.597656 L 12.398438 14.398438 L 11.601562 14.398438 Z M 11.601562 13.597656 "/>
<path style=" stroke:none;fill-rule:nonzero;fill:rgb(0%,0%,0%);fill-opacity:1;" d="M 2.800781 13.597656 L 3.601562 13.597656 L 3.601562 14.398438 L 2.800781 14.398438 Z M 2.800781 13.597656 "/>
<path style=" stroke:none;fill-rule:nonzero;fill:rgb(0%,0%,0%);fill-opacity:1;" d="M 23.199219 11.199219 L 23.199219 10 L 23.601562 10 C 23.820312 10 24 9.820312 24 9.597656 L 24 8 C 24 7.78125 23.820312 7.597656 23.601562 7.597656 L 23.199219 7.597656 L 23.199219 6.800781 C 23.199219 6.671875 23.136719 6.546875 23.03125 6.476562 L 14.632812 0.476562 C 14.492188 0.375 14.308594 0.375 14.167969 0.476562 L 9.074219 4.109375 L 8.683594 3.714844 C 8.609375 3.644531 8.507812 3.597656 8.398438 3.597656 L 0.398438 3.597656 C 0.179688 3.597656 0 3.78125 0 4 L 0 8 C 0 8.21875 0.179688 8.398438 0.398438 8.398438 L 2.636719 8.398438 L 3.4375 9.199219 L 0.398438 9.199219 C 0.179688 9.199219 0 9.378906 0 9.597656 L 0 18.398438 C 0 18.621094 0.179688 18.800781 0.398438 18.800781 L 14.800781 18.800781 C 15.019531 18.800781 15.199219 18.621094 15.199219 18.398438 L 15.199219 9.597656 C 15.199219 9.378906 15.019531 9.199219 14.800781 9.199219 L 11.601562 9.199219 L 11.601562 8.398438 L 23.199219 8.398438 L 23.199219 9.199219 L 16 9.199219 L 16 10 L 22.398438 10 L 22.398438 10.800781 L 20 10.800781 L 20 11.597656 L 22 11.597656 L 22 19.597656 L 6 19.597656 C 5.78125 19.597656 5.601562 19.78125 5.601562 20 L 5.601562 21.199219 L 5.199219 21.199219 C 4.980469 21.199219 4.800781 21.378906 4.800781 21.597656 L 4.800781 23.199219 C 4.800781 23.417969 4.980469 23.597656 5.199219 23.597656 L 23.601562 23.597656 C 23.820312 23.597656 24 23.417969 24 23.199219 L 24 21.597656 C 24 21.378906 23.820312 21.199219 23.601562 21.199219 L 23.199219 21.199219 L 23.199219 20 C 23.199219 19.78125 23.019531 19.597656 22.800781 19.597656 L 22.800781 11.597656 C 23.019531 11.597656 23.199219 11.417969 23.199219 11.199219 Z M 3.085938 7.714844 C 3.007812 7.644531 2.90625 7.597656 2.800781 7.597656 L 0.800781 7.597656 L 0.800781 4.398438 L 8.234375 4.398438 L 8.746094 4.914062 L 10.515625 6.683594 L 10.800781 6.964844 L 10.800781 9.199219 L 9.601562 9.199219 L 9.601562 8 C 9.601562 7.992188 9.597656 7.984375 9.597656 7.976562 C 9.59375 7.941406 9.585938 7.902344 9.574219 7.871094 C 9.570312 7.859375 9.566406 7.847656 9.558594 7.835938 C 9.539062 7.792969 9.515625 7.75 9.484375 7.714844 L 8.285156 6.515625 C 8.207031 6.445312 8.109375 6.398438 8 6.398438 L 6.398438 6.398438 C 6.179688 6.398438 6 6.578125 6 6.800781 L 6 8.398438 C 6 8.507812 6.042969 8.609375 6.117188 8.683594 L 7.199219 9.761719 L 7.199219 10.800781 L 6.164062 10.800781 L 4.683594 9.316406 Z M 6.964844 8.398438 L 8.800781 8.398438 L 8.800781 9.199219 L 7.765625 9.199219 Z M 6.800781 7.597656 L 6.800781 7.199219 L 7.835938 7.199219 L 8.234375 7.597656 Z M 14.398438 10 L 14.398438 18 L 0.800781 18 L 0.800781 10 L 4.234375 10 L 5.578125 11.34375 C 4.832031 12.011719 4.398438 12.957031 4.398438 14 C 4.398438 15.339844 5.105469 16.515625 6.285156 17.152344 L 6.664062 16.449219 C 5.746094 15.957031 5.199219 15.039062 5.199219 14 C 5.199219 12.992188 5.71875 12.101562 6.589844 11.597656 L 7.199219 11.597656 L 7.199219 12 L 6.800781 12 C 6.578125 12 6.398438 12.179688 6.398438 12.398438 L 6.398438 14 C 6.398438 14.21875 6.578125 14.398438 6.800781 14.398438 L 8 14.398438 L 8 15.199219 L 7.199219 15.199219 L 7.199219 14.800781 L 6.398438 14.800781 L 6.398438 15.597656 C 6.398438 15.820312 6.578125 16 6.800781 16 L 7.199219 16 L 7.199219 16.398438 L 8 16.398438 L 8 16 L 8.398438 16 C 8.621094 16 8.800781 15.820312 8.800781 15.597656 L 8.800781 14 C 8.800781 13.78125 8.621094 13.597656 8.398438 13.597656 L 7.199219 13.597656 L 7.199219 12.800781 L 8 12.800781 L 8 13.199219 L 8.800781 13.199219 L 8.800781 12.398438 C 8.800781 12.179688 8.621094 12 8.398438 12 L 8 12 L 8 10 Z M 10.964844 6 L 10.769531 5.800781 L 12.003906 4.945312 C 12.027344 5.316406 12.140625 5.679688 12.324219 6 Z M 22.398438 7.597656 L 11.601562 7.597656 L 11.601562 6.800781 L 13.199219 6.800781 C 13.371094 6.800781 13.523438 6.6875 13.578125 6.527344 C 13.632812 6.363281 13.574219 6.183594 13.441406 6.078125 C 13.039062 5.78125 12.800781 5.300781 12.800781 4.800781 C 12.800781 4.601562 12.835938 4.414062 12.898438 4.238281 C 12.964844 4.074219 12.910156 3.886719 12.777344 3.78125 C 12.636719 3.671875 12.445312 3.667969 12.300781 3.765625 L 10.191406 5.222656 L 9.648438 4.683594 L 14.398438 1.292969 L 22.398438 7.003906 Z M 6.398438 20.398438 L 22.398438 20.398438 L 22.398438 21.199219 L 6.398438 21.199219 Z M 23.199219 22 L 23.199219 22.800781 L 5.601562 22.800781 L 5.601562 22 Z M 23.199219 22 "/>
<path style=" stroke:none;fill-rule:nonzero;fill:rgb(0%,0%,0%);fill-opacity:1;" d="M 18 14.800781 L 16 14.800781 L 16 15.597656 L 17.601562 15.597656 L 17.601562 16.800781 C 17.601562 16.960938 17.699219 17.105469 17.847656 17.167969 C 17.898438 17.191406 17.949219 17.199219 18 17.199219 C 18.105469 17.199219 18.207031 17.160156 18.28125 17.082031 L 21.082031 14.28125 C 21.238281 14.125 21.238281 13.871094 21.082031 13.714844 L 18.28125 10.917969 C 18.167969 10.800781 17.996094 10.765625 17.847656 10.828125 C 17.699219 10.890625 17.601562 11.039062 17.601562 11.199219 L 17.601562 12.398438 L 16 12.398438 L 16 13.199219 L 18 13.199219 C 18.222656 13.199219 18.398438 13.019531 18.398438 12.800781 L 18.398438 12.164062 L 20.234375 14 L 18.398438 15.832031 L 18.398438 15.199219 C 18.398438 14.976562 18.222656 14.800781 18 14.800781 Z M 18 14.800781 "/>
<path style=" stroke:none;fill-rule:nonzero;fill:rgb(0%,0%,0%);fill-opacity:1;" d="M 20.398438 16.800781 L 21.199219 16.800781 L 21.199219 18.800781 L 20.398438 18.800781 Z M 20.398438 16.800781 "/>
<path style=" stroke:none;fill-rule:nonzero;fill:rgb(0%,0%,0%);fill-opacity:1;" d="M 18.800781 18 L 19.601562 18 L 19.601562 18.800781 L 18.800781 18.800781 Z M 18.800781 18 "/>
<path style=" stroke:none;fill-rule:nonzero;fill:rgb(0%,0%,0%);fill-opacity:1;" d="M 16 17.199219 L 16.800781 17.199219 L 16.800781 18.800781 L 16 18.800781 Z M 16 17.199219 "/>
<path style=" stroke:none;fill-rule:nonzero;fill:rgb(0%,0%,0%);fill-opacity:1;" d="M 15.601562 6.800781 L 19.601562 6.800781 C 19.773438 6.800781 19.929688 6.6875 19.980469 6.519531 C 20.035156 6.351562 19.972656 6.171875 19.828125 6.070312 L 16.5 3.765625 C 16.355469 3.667969 16.164062 3.671875 16.023438 3.78125 C 15.886719 3.890625 15.835938 4.074219 15.898438 4.238281 C 15.964844 4.414062 16 4.605469 16 4.800781 C 16 5.300781 15.761719 5.777344 15.359375 6.078125 C 15.222656 6.183594 15.164062 6.363281 15.21875 6.527344 C 15.273438 6.6875 15.429688 6.800781 15.601562 6.800781 Z M 16.796875 4.945312 L 18.320312 6 L 16.476562 6 C 16.660156 5.679688 16.773438 5.316406 16.796875 4.945312 Z M 16.796875 4.945312 "/>
</g>
</svg>
