<?xml version="1.0" encoding="UTF-8"?>
<svg xmlns="http://www.w3.org/2000/svg" xmlns:xlink="http://www.w3.org/1999/xlink" width="24px" height="24px" viewBox="0 0 24 24" version="1.1" fill="#ffffff">
<g id="surface1">
<path style=" stroke:none;fill-rule:nonzero;" d="M 23.847656 11.53125 C 23.632812 11.238281 18.523438 4.351562 12 4.351562 C 5.476562 4.351562 0.367188 11.238281 0.152344 11.53125 C -0.0507812 11.8125 -0.0507812 12.1875 0.152344 12.46875 C 0.367188 12.761719 5.476562 19.648438 12 19.648438 C 18.523438 19.648438 23.632812 12.761719 23.847656 12.46875 C 24.050781 12.1875 24.050781 11.8125 23.847656 11.53125 Z M 12 18.066406 C 7.195312 18.066406 3.03125 13.492188 1.800781 12 C 3.03125 10.503906 7.183594 5.933594 12 5.933594 C 16.804688 5.933594 20.96875 10.503906 22.199219 12 C 20.96875 13.496094 16.816406 18.066406 12 18.066406 Z M 12 18.066406 "/>
<path style=" stroke:none;fill-rule:nonzero;" d="M 12 7.253906 C 9.382812 7.253906 7.253906 9.382812 7.253906 12 C 7.253906 14.617188 9.382812 16.746094 12 16.746094 C 14.617188 16.746094 16.746094 14.617188 16.746094 12 C 16.746094 9.382812 14.617188 7.253906 12 7.253906 Z M 12 15.164062 C 10.253906 15.164062 8.835938 13.746094 8.835938 12 C 8.835938 10.253906 10.253906 8.835938 12 8.835938 C 13.746094 8.835938 15.164062 10.253906 15.164062 12 C 15.164062 13.746094 13.746094 15.164062 12 15.164062 Z M 12 15.164062 "/>
</g>
</svg>
