<?xml version="1.0" encoding="UTF-8"?>
<svg xmlns="http://www.w3.org/2000/svg" xmlns:xlink="http://www.w3.org/1999/xlink" width="24px" height="24px" viewBox="0 0 24 24" version="1.1">
<g id="surface1">
<path style=" stroke:none;fill-rule:evenodd;fill:rgb(100%,100%,100%);fill-opacity:1;" d="M 12.015625 2.34375 C 17.289062 2.34375 21.5625 6.617188 21.5625 11.886719 C 21.5625 17.160156 17.289062 21.433594 12.015625 21.433594 C 10.410156 21.433594 8.839844 21.035156 7.433594 20.261719 L 6.769531 19.898438 L 3.210938 20.859375 L 4.179688 17.398438 L 3.777344 16.710938 C 2.917969 15.242188 2.472656 13.589844 2.472656 11.886719 C 2.472656 6.617188 6.746094 2.34375 12.015625 2.34375 Z M 6.53125 21.90625 C 8.160156 22.800781 10.027344 23.308594 12.015625 23.308594 C 18.324219 23.308594 23.4375 18.195312 23.4375 11.886719 C 23.4375 5.582031 18.324219 0.46875 12.015625 0.46875 C 5.710938 0.46875 0.597656 5.582031 0.597656 11.886719 C 0.597656 13.992188 1.167969 15.964844 2.160156 17.660156 L 0.515625 23.53125 Z M 6.53125 21.90625 "/>
<path style=" stroke:none;fill-rule:evenodd;fill:rgb(16.862745%,69.411765%,25.098039%);fill-opacity:1;" d="M 21.5625 11.886719 C 21.5625 6.617188 17.289062 2.34375 12.015625 2.34375 C 6.746094 2.34375 2.472656 6.617188 2.472656 11.886719 C 2.472656 13.589844 2.917969 15.242188 3.777344 16.710938 L 4.179688 17.398438 L 3.210938 20.859375 L 6.769531 19.898438 L 7.433594 20.261719 C 8.839844 21.035156 10.410156 21.433594 12.015625 21.433594 C 17.289062 21.433594 21.5625 17.160156 21.5625 11.886719 Z M 9.292969 11.402344 C 9.722656 12.144531 10.472656 12.980469 11.164062 13.519531 C 12.003906 14.164062 13.316406 15.015625 13.742188 14.640625 C 13.941406 14.460938 14.496094 13.660156 14.570312 13.601562 C 14.644531 13.542969 14.890625 13.132812 15.472656 13.414062 C 16.050781 13.695312 17.5 14.414062 17.5 14.414062 C 17.5 14.414062 17.816406 14.542969 17.800781 15.03125 C 17.789062 15.523438 17.765625 15.652344 17.765625 15.652344 C 17.765625 15.652344 17.554688 17.335938 15.253906 17.402344 C 14.210938 17.433594 13.007812 17.007812 11.9375 16.464844 C 10.113281 15.535156 8.972656 14.503906 7.753906 12.90625 C 6.925781 11.820312 6.101562 10.394531 6.246094 9.125 C 6.5 6.925781 7.898438 6.722656 7.898438 6.722656 C 7.898438 6.722656 8.027344 6.707031 8.519531 6.714844 C 9.007812 6.726562 9.121094 7.046875 9.121094 7.046875 C 9.121094 7.046875 9.800781 8.597656 10.054688 9.191406 C 10.308594 9.785156 10.035156 10.042969 9.972656 10.113281 C 9.914062 10.183594 9.546875 10.617188 9.359375 10.808594 C 9.171875 11 9.214844 11.269531 9.292969 11.402344 Z M 9.292969 11.402344 "/>
<path style=" stroke:none;fill-rule:evenodd;fill:rgb(100%,100%,100%);fill-opacity:1;" d="M 10.054688 9.191406 C 9.800781 8.597656 9.121094 7.046875 9.121094 7.046875 C 9.121094 7.046875 9.007812 6.726562 8.515625 6.714844 C 8.027344 6.707031 7.898438 6.722656 7.898438 6.722656 C 7.898438 6.722656 6.5 6.925781 6.246094 9.125 C 6.101562 10.394531 6.925781 11.820312 7.753906 12.90625 C 8.972656 14.503906 10.113281 15.535156 11.9375 16.464844 C 13.007812 17.007812 14.210938 17.433594 15.253906 17.402344 C 17.554688 17.335938 17.765625 15.652344 17.765625 15.652344 C 17.765625 15.652344 17.789062 15.523438 17.800781 15.03125 C 17.816406 14.542969 17.5 14.414062 17.5 14.414062 C 17.5 14.414062 16.050781 13.695312 15.472656 13.414062 C 14.890625 13.132812 14.644531 13.542969 14.570312 13.601562 C 14.496094 13.660156 13.941406 14.460938 13.742188 14.640625 C 13.316406 15.015625 12.003906 14.164062 11.164062 13.519531 C 10.472656 12.980469 9.722656 12.144531 9.292969 11.402344 C 9.214844 11.269531 9.171875 11 9.359375 10.808594 C 9.546875 10.617188 9.910156 10.183594 9.972656 10.113281 C 10.035156 10.042969 10.308594 9.785156 10.054688 9.191406 Z M 10.054688 9.191406 "/>
<path style=" stroke:none;fill-rule:nonzero;fill:rgb(0%,0%,0%);fill-opacity:1;" d="M 20.421875 3.480469 C 18.175781 1.238281 15.191406 0 12.015625 0 C 9.519531 0 7.128906 0.765625 5.105469 2.214844 C 4.894531 2.367188 4.84375 2.660156 4.996094 2.871094 C 5.144531 3.082031 5.4375 3.128906 5.648438 2.976562 C 7.515625 1.644531 9.714844 0.9375 12.015625 0.9375 C 18.054688 0.9375 22.96875 5.851562 22.96875 11.886719 C 22.96875 17.925781 18.054688 22.839844 12.015625 22.839844 C 10.175781 22.839844 8.359375 22.375 6.753906 21.496094 C 6.648438 21.4375 6.523438 21.421875 6.40625 21.453125 L 1.191406 22.863281 L 2.613281 17.785156 C 2.648438 17.664062 2.628906 17.53125 2.566406 17.421875 C 1.585938 15.75 1.066406 13.835938 1.066406 11.886719 C 1.066406 9.585938 1.769531 7.386719 3.105469 5.519531 C 3.257812 5.3125 3.207031 5.019531 2.996094 4.867188 C 2.789062 4.71875 2.496094 4.765625 2.34375 4.976562 C 0.894531 7 0.128906 9.390625 0.128906 11.886719 C 0.128906 13.9375 0.65625 15.949219 1.65625 17.722656 L 0.0625 23.40625 C 0.0195312 23.566406 0.0625 23.742188 0.183594 23.859375 C 0.273438 23.949219 0.390625 24 0.515625 24 C 0.554688 24 0.597656 23.996094 0.636719 23.984375 L 6.472656 22.40625 C 8.171875 23.304688 10.082031 23.777344 12.015625 23.777344 C 15.191406 23.777344 18.175781 22.539062 20.421875 20.292969 C 22.667969 18.050781 23.90625 15.0625 23.90625 11.886719 C 23.90625 8.710938 22.667969 5.726562 20.421875 3.480469 Z M 20.421875 3.480469 "/>
<path style=" stroke:none;fill-rule:nonzero;fill:rgb(0%,0%,0%);fill-opacity:1;" d="M 19.699219 17.570312 C 19.914062 17.714844 20.207031 17.65625 20.351562 17.441406 C 21.449219 15.792969 22.03125 13.875 22.03125 11.886719 C 22.03125 9.214844 20.988281 6.699219 19.097656 4.808594 C 17.207031 2.917969 14.691406 1.875 12.015625 1.875 C 9.339844 1.875 6.828125 2.917969 4.9375 4.808594 C 3.042969 6.699219 2.003906 9.214844 2.003906 11.886719 C 2.003906 13.671875 2.476562 15.417969 3.375 16.949219 L 3.675781 17.464844 L 2.761719 20.734375 C 2.714844 20.894531 2.757812 21.070312 2.878906 21.191406 C 2.996094 21.308594 3.171875 21.355469 3.332031 21.3125 L 6.710938 20.398438 L 7.207031 20.671875 C 8.671875 21.476562 10.335938 21.902344 12.015625 21.902344 C 14.003906 21.902344 15.921875 21.320312 17.570312 20.222656 C 17.785156 20.078125 17.84375 19.789062 17.699219 19.570312 C 17.554688 19.355469 17.265625 19.296875 17.046875 19.441406 C 15.558594 20.4375 13.816406 20.964844 12.015625 20.964844 C 10.492188 20.964844 8.984375 20.578125 7.65625 19.851562 L 6.996094 19.488281 C 6.890625 19.429688 6.765625 19.414062 6.648438 19.445312 L 3.886719 20.191406 L 4.632812 17.523438 C 4.667969 17.402344 4.648438 17.269531 4.585938 17.160156 L 4.183594 16.472656 C 3.371094 15.089844 2.941406 13.503906 2.941406 11.886719 C 2.941406 6.882812 7.011719 2.8125 12.015625 2.8125 C 17.019531 2.8125 21.09375 6.882812 21.09375 11.886719 C 21.09375 13.6875 20.566406 15.429688 19.570312 16.921875 C 19.425781 17.136719 19.484375 17.425781 19.699219 17.570312 Z M 19.699219 17.570312 "/>
<path style=" stroke:none;fill-rule:nonzero;fill:rgb(0%,0%,0%);fill-opacity:1;" d="M 10.304688 10.449219 L 10.335938 10.414062 C 10.753906 9.941406 10.648438 9.386719 10.484375 9.007812 C 10.246094 8.445312 9.613281 7.003906 9.554688 6.867188 C 9.460938 6.632812 9.152344 6.261719 8.527344 6.246094 C 8.039062 6.238281 7.878906 6.25 7.84375 6.253906 C 7.839844 6.257812 7.835938 6.257812 7.832031 6.257812 C 7.761719 6.269531 6.070312 6.539062 5.78125 9.070312 C 5.644531 10.234375 6.183594 11.621094 7.382812 13.191406 C 8.707031 14.929688 9.921875 15.964844 11.722656 16.882812 C 12.621094 17.339844 13.929688 17.875 15.148438 17.875 C 15.191406 17.875 15.230469 17.875 15.269531 17.871094 C 16.636719 17.832031 17.367188 17.261719 17.742188 16.792969 C 18.136719 16.292969 18.21875 15.800781 18.230469 15.714844 C 18.238281 15.664062 18.257812 15.492188 18.269531 15.046875 C 18.285156 14.421875 17.929688 14.09375 17.699219 13.988281 C 17.570312 13.925781 16.226562 13.257812 15.675781 12.992188 C 15.304688 12.8125 14.757812 12.710938 14.265625 13.242188 C 14.265625 13.246094 14.261719 13.25 14.257812 13.25 C 14.191406 13.308594 14.128906 13.394531 13.925781 13.664062 C 13.804688 13.828125 13.558594 14.15625 13.453125 14.265625 C 13.234375 14.28125 12.496094 13.957031 11.453125 13.148438 C 10.792969 12.636719 10.089844 11.84375 9.699219 11.171875 C 9.695312 11.160156 9.695312 11.144531 9.695312 11.132812 C 9.855469 10.96875 10.121094 10.664062 10.304688 10.449219 Z M 10.878906 13.886719 C 11.191406 14.128906 11.804688 14.582031 12.394531 14.882812 C 12.675781 15.023438 13.527344 15.457031 14.050781 14.992188 C 14.199219 14.863281 14.402344 14.59375 14.679688 14.222656 C 14.757812 14.117188 14.855469 13.988281 14.894531 13.941406 C 14.917969 13.921875 14.9375 13.898438 14.957031 13.878906 C 15.039062 13.785156 15.078125 13.746094 15.265625 13.835938 C 15.832031 14.109375 17.242188 14.808594 17.292969 14.832031 C 17.308594 14.851562 17.335938 14.90625 17.332031 15.019531 C 17.320312 15.410156 17.308594 15.550781 17.304688 15.574219 C 17.300781 15.585938 17.304688 15.578125 17.300781 15.589844 C 17.296875 15.621094 17.238281 15.9375 16.980469 16.246094 C 16.613281 16.679688 16.03125 16.914062 15.242188 16.933594 C 14.1875 16.964844 12.976562 16.46875 12.148438 16.046875 C 10.464844 15.1875 9.375 14.257812 8.125 12.621094 C 7.097656 11.269531 6.609375 10.078125 6.710938 9.179688 C 6.90625 7.480469 7.835938 7.214844 7.960938 7.1875 C 8.003906 7.183594 8.15625 7.175781 8.507812 7.183594 C 8.621094 7.1875 8.675781 7.21875 8.691406 7.234375 C 8.714844 7.289062 9.375 8.796875 9.621094 9.375 C 9.746094 9.664062 9.671875 9.75 9.632812 9.789062 C 9.628906 9.796875 9.621094 9.804688 9.617188 9.808594 L 9.589844 9.839844 C 9.320312 10.15625 9.128906 10.375 9.023438 10.480469 C 8.675781 10.835938 8.710938 11.328125 8.886719 11.636719 C 9.339844 12.417969 10.121094 13.300781 10.878906 13.886719 Z M 10.878906 13.886719 "/>
<path style=" stroke:none;fill-rule:nonzero;fill:rgb(0%,0%,0%);fill-opacity:1;" d="M 3.941406 4.28125 C 4.054688 4.28125 4.167969 4.242188 4.257812 4.160156 C 4.449219 3.984375 4.460938 3.691406 4.289062 3.5 C 4.113281 3.304688 3.816406 3.292969 3.625 3.464844 C 3.433594 3.640625 3.421875 3.9375 3.59375 4.128906 C 3.6875 4.230469 3.8125 4.28125 3.941406 4.28125 Z M 3.941406 4.28125 "/>
<path style=" stroke:none;fill-rule:nonzero;fill:rgb(0%,0%,0%);fill-opacity:1;" d="M 18.417969 18.320312 L 18.417969 18.324219 C 18.246094 18.515625 18.257812 18.808594 18.449219 18.984375 C 18.539062 19.066406 18.652344 19.105469 18.765625 19.105469 C 18.894531 19.105469 19.019531 19.054688 19.113281 18.953125 C 19.285156 18.761719 19.273438 18.464844 19.082031 18.289062 C 18.890625 18.117188 18.59375 18.128906 18.417969 18.320312 Z M 18.417969 18.320312 "/>
</g>
</svg>
