<?xml version="1.0" encoding="UTF-8"?>
<svg xmlns="http://www.w3.org/2000/svg" xmlns:xlink="http://www.w3.org/1999/xlink" width="24px" height="24px" viewBox="0 0 24 24" version="1.1">
<g id="surface1">
<path style=" stroke:none;fill-rule:nonzero;fill:rgb(0%,0%,0%);fill-opacity:1;" d="M 12 9.703125 C 14.25 9.703125 16.078125 7.875 16.078125 5.625 C 16.078125 3.375 14.25 1.546875 12 1.546875 C 9.75 1.546875 7.921875 3.375 7.921875 5.625 C 7.921875 7.875 9.75 9.703125 12 9.703125 Z M 12 2.953125 C 13.472656 2.953125 14.671875 4.152344 14.671875 5.625 C 14.671875 7.097656 13.472656 8.296875 12 8.296875 C 10.527344 8.296875 9.328125 7.097656 9.328125 5.625 C 9.328125 4.152344 10.527344 2.953125 12 2.953125 Z M 12 2.953125 "/>
<path style=" stroke:none;fill-rule:nonzero;fill:rgb(0%,0%,0%);fill-opacity:1;" d="M 20.25 9.703125 C 21.671875 9.703125 22.828125 8.546875 22.828125 7.125 C 22.828125 5.703125 21.671875 4.546875 20.25 4.546875 C 18.828125 4.546875 17.671875 5.703125 17.671875 7.125 C 17.671875 8.546875 18.828125 9.703125 20.25 9.703125 Z M 20.25 5.953125 C 20.894531 5.953125 21.421875 6.480469 21.421875 7.125 C 21.421875 7.769531 20.894531 8.296875 20.25 8.296875 C 19.605469 8.296875 19.078125 7.769531 19.078125 7.125 C 19.078125 6.480469 19.605469 5.953125 20.25 5.953125 Z M 20.25 5.953125 "/>
<path style=" stroke:none;fill-rule:nonzero;fill:rgb(0%,0%,0%);fill-opacity:1;" d="M 20.816406 11.296875 L 19.730469 11.296875 C 18.449219 11.296875 17.34375 12.054688 16.835938 13.140625 C 15.800781 12.007812 14.308594 11.296875 12.65625 11.296875 L 11.34375 11.296875 C 9.691406 11.296875 8.199219 12.007812 7.164062 13.140625 C 6.65625 12.054688 5.550781 11.296875 4.269531 11.296875 L 3.183594 11.296875 C 1.429688 11.296875 0 12.714844 0 14.460938 L 0 19.578125 C 0 20.335938 0.617188 20.953125 1.378906 20.953125 L 5.679688 20.953125 C 5.75 21.792969 6.457031 22.453125 7.3125 22.453125 L 16.6875 22.453125 C 17.542969 22.453125 18.25 21.792969 18.320312 20.953125 L 22.570312 20.953125 C 23.359375 20.953125 24 20.316406 24 19.53125 L 24 14.460938 C 24 12.714844 22.570312 11.296875 20.816406 11.296875 Z M 1.40625 14.460938 C 1.40625 13.492188 2.203125 12.703125 3.183594 12.703125 L 4.269531 12.703125 C 5.25 12.703125 6.046875 13.492188 6.046875 14.460938 L 6.046875 14.941406 C 5.574219 16.171875 5.671875 16.910156 5.671875 19.546875 L 1.40625 19.546875 Z M 16.921875 20.8125 C 16.921875 20.941406 16.816406 21.046875 16.6875 21.046875 L 7.3125 21.046875 C 7.183594 21.046875 7.078125 20.941406 7.078125 20.8125 L 7.078125 16.96875 C 7.078125 14.617188 8.992188 12.703125 11.34375 12.703125 L 12.65625 12.703125 C 15.007812 12.703125 16.921875 14.617188 16.921875 16.96875 Z M 22.59375 19.53125 C 22.59375 19.554688 22.855469 19.546875 18.328125 19.546875 C 18.328125 16.890625 18.425781 16.171875 17.953125 14.941406 L 17.953125 14.460938 C 17.953125 13.492188 18.75 12.703125 19.730469 12.703125 L 20.816406 12.703125 C 21.796875 12.703125 22.59375 13.492188 22.59375 14.460938 Z M 22.59375 19.53125 "/>
<path style=" stroke:none;fill-rule:nonzero;fill:rgb(0%,0%,0%);fill-opacity:1;" d="M 3.75 9.703125 C 5.171875 9.703125 6.328125 8.546875 6.328125 7.125 C 6.328125 5.703125 5.171875 4.546875 3.75 4.546875 C 2.328125 4.546875 1.171875 5.703125 1.171875 7.125 C 1.171875 8.546875 2.328125 9.703125 3.75 9.703125 Z M 3.75 5.953125 C 4.394531 5.953125 4.921875 6.480469 4.921875 7.125 C 4.921875 7.769531 4.394531 8.296875 3.75 8.296875 C 3.105469 8.296875 2.578125 7.769531 2.578125 7.125 C 2.578125 6.480469 3.105469 5.953125 3.75 5.953125 Z M 3.75 5.953125 "/>
</g>
</svg>
