<?xml version="1.0" encoding="UTF-8"?>
<svg xmlns="http://www.w3.org/2000/svg" xmlns:xlink="http://www.w3.org/1999/xlink" width="24px" height="24px" viewBox="0 0 24 24" version="1.1">
<g id="surface1">
<path style=" stroke:none;fill-rule:nonzero;fill:rgb(47.058824%,81.568627%,56.470588%);fill-opacity:1;" d="M 18.011719 1.085938 C 13.207031 1.976562 8.476562 3.171875 3.824219 4.671875 C 4.003906 7.578125 4.703125 10.347656 5.925781 12.992188 C 10.730469 12.101562 15.460938 10.90625 20.117188 9.40625 C 19.933594 6.5 19.234375 3.726562 18.011719 1.085938 Z M 18.011719 1.085938 "/>
<path style=" stroke:none;fill-rule:nonzero;fill:rgb(38.823529%,68.627451%,49.019608%);fill-opacity:1;" d="M 18.628906 6.953125 C 18.574219 6.960938 18.515625 6.972656 18.457031 6.988281 C 17.589844 7.207031 17.0625 8.089844 17.28125 8.960938 C 17.289062 8.984375 17.292969 9.011719 17.300781 9.035156 C 15.804688 9.480469 14.292969 9.898438 12.789062 10.277344 C 11.28125 10.65625 9.753906 11.007812 8.222656 11.328125 C 8.21875 11.304688 8.214844 11.277344 8.207031 11.253906 C 7.988281 10.382812 7.105469 9.855469 6.234375 10.074219 C 6.175781 10.089844 6.121094 10.105469 6.066406 10.128906 C 5.742188 9.144531 5.492188 8.144531 5.308594 7.125 C 5.367188 7.117188 5.421875 7.105469 5.480469 7.089844 C 6.351562 6.871094 6.875 5.988281 6.65625 5.117188 C 6.648438 5.09375 6.644531 5.066406 6.636719 5.042969 C 8.136719 4.597656 9.644531 4.179688 11.152344 3.800781 C 12.65625 3.421875 14.183594 3.066406 15.714844 2.75 C 15.71875 2.773438 15.726562 2.800781 15.730469 2.824219 C 15.949219 3.695312 16.835938 4.222656 17.703125 4.003906 C 17.761719 3.988281 17.816406 3.96875 17.871094 3.949219 C 18.195312 4.933594 18.449219 5.933594 18.628906 6.953125 Z M 18.628906 6.953125 "/>
<path style=" stroke:none;fill-rule:nonzero;fill:rgb(47.058824%,81.568627%,56.470588%);fill-opacity:1;" d="M 13.855469 6.566406 C 13.554688 5.371094 12.46875 4.613281 11.429688 4.875 C 10.386719 5.136719 9.789062 6.320312 10.09375 7.515625 C 10.394531 8.714844 11.484375 9.46875 12.523438 9.207031 C 13.5625 8.945312 14.160156 7.761719 13.855469 6.566406 Z M 13.855469 6.566406 "/>
<path style=" stroke:none;fill-rule:nonzero;fill:rgb(47.058824%,81.568627%,56.470588%);fill-opacity:1;" d="M 21.875 5.847656 C 16.996094 5.535156 12.117188 5.535156 7.238281 5.847656 C 6.703125 8.710938 6.703125 11.570312 7.238281 14.429688 C 12.117188 14.742188 16.996094 14.742188 21.875 14.429688 C 22.414062 11.570312 22.414062 8.710938 21.875 5.847656 Z M 21.875 5.847656 "/>
<path style=" stroke:none;fill-rule:nonzero;fill:rgb(38.823529%,68.627451%,49.019608%);fill-opacity:1;" d="M 21.035156 11.6875 C 20.980469 11.683594 20.921875 11.679688 20.863281 11.679688 C 19.964844 11.679688 19.238281 12.40625 19.238281 13.300781 C 19.238281 13.328125 19.238281 13.355469 19.238281 13.382812 C 17.675781 13.445312 16.109375 13.480469 14.558594 13.480469 C 13.003906 13.480469 11.4375 13.445312 9.875 13.382812 C 9.878906 13.355469 9.878906 13.328125 9.878906 13.300781 C 9.878906 12.40625 9.152344 11.679688 8.253906 11.679688 C 8.195312 11.679688 8.136719 11.683594 8.078125 11.6875 C 8.007812 10.65625 8.007812 9.621094 8.078125 8.589844 C 8.136719 8.597656 8.195312 8.601562 8.253906 8.601562 C 9.152344 8.601562 9.878906 7.871094 9.878906 6.976562 C 9.878906 6.949219 9.878906 6.921875 9.875 6.898438 C 11.4375 6.832031 13.003906 6.796875 14.558594 6.796875 C 16.109375 6.796875 17.675781 6.832031 19.238281 6.898438 C 19.238281 6.921875 19.238281 6.949219 19.238281 6.976562 C 19.238281 7.871094 19.964844 8.601562 20.863281 8.601562 C 20.921875 8.601562 20.980469 8.597656 21.035156 8.589844 C 21.109375 9.621094 21.109375 10.65625 21.035156 11.6875 Z M 21.035156 11.6875 "/>
<path style=" stroke:none;fill-rule:nonzero;fill:rgb(47.058824%,81.568627%,56.470588%);fill-opacity:1;" d="M 16.5 10.140625 C 16.5 8.90625 15.628906 7.90625 14.558594 7.90625 C 13.488281 7.90625 12.617188 8.90625 12.617188 10.140625 C 12.617188 11.371094 13.488281 12.371094 14.558594 12.371094 C 15.628906 12.371094 16.5 11.371094 16.5 10.140625 Z M 16.5 10.140625 "/>
<path style=" stroke:none;fill-rule:nonzero;fill:rgb(94.509804%,81.568627%,64.705882%);fill-opacity:1;" d="M 23.078125 16.320312 L 16.957031 21.230469 C 16.457031 21.632812 15.8125 21.816406 15.171875 21.738281 L 6.925781 20.734375 L 4.726562 21.546875 C 3.546875 20.332031 4.03125 16.429688 4.03125 16.429688 L 4.554688 16.285156 C 4.511719 15.585938 4.839844 14.890625 5.453125 14.496094 C 5.519531 14.449219 5.589844 14.410156 5.664062 14.375 L 9.199219 12.648438 L 11.019531 11.757812 C 11.117188 11.710938 11.21875 11.671875 11.320312 11.644531 C 12.082031 11.4375 12.90625 11.769531 13.296875 12.488281 C 13.738281 13.300781 13.460938 14.316406 12.664062 14.792969 L 9.726562 16.554688 L 14.671875 17.417969 C 15.265625 17.519531 15.878906 17.394531 16.386719 17.066406 L 21.308594 13.871094 C 21.964844 13.445312 22.84375 13.59375 23.328125 14.214844 C 23.453125 14.375 23.539062 14.554688 23.589844 14.742188 C 23.746094 15.304688 23.5625 15.933594 23.078125 16.320312 Z M 23.078125 16.320312 "/>
<path style=" stroke:none;fill-rule:nonzero;fill:rgb(94.509804%,72.54902%,52.54902%);fill-opacity:1;" d="M 15.15625 20.421875 C 11.769531 20.859375 9.433594 18.875 8.019531 17.003906 C 7.320312 16.078125 7.558594 14.753906 8.535156 14.125 C 11.945312 11.9375 12.828125 12.019531 13.296875 12.488281 C 12.90625 11.769531 12.082031 11.4375 11.320312 11.644531 C 11.21875 11.671875 11.117188 11.710938 11.019531 11.757812 L 9.199219 12.648438 L 6.335938 14.046875 L 5.664062 14.375 C 4.917969 14.738281 4.503906 15.507812 4.554688 16.285156 L 4.03125 16.429688 C 4.03125 16.429688 3.546875 20.332031 4.726562 21.546875 L 6.925781 20.734375 L 15.171875 21.738281 C 15.8125 21.816406 16.457031 21.632812 16.957031 21.230469 L 23.078125 16.320312 C 20.960938 15.75 17.4375 20.070312 15.15625 20.421875 Z M 15.15625 20.421875 "/>
<path style=" stroke:none;fill-rule:nonzero;fill:rgb(50.196078%,65.098039%,77.647059%);fill-opacity:1;" d="M 3.300781 15.9375 C 2.242188 16.066406 1.261719 16.414062 0.355469 16.976562 C 0.945312 18.992188 1.644531 20.972656 2.453125 22.914062 C 3.511719 22.785156 4.492188 22.4375 5.398438 21.871094 C 4.804688 19.855469 4.105469 17.878906 3.300781 15.9375 Z M 3.300781 15.9375 "/>
<path style=" stroke:none;fill-rule:nonzero;fill:rgb(35.686275%,55.686275%,72.156863%);fill-opacity:1;" d="M 5.398438 21.871094 C 4.492188 22.4375 3.511719 22.785156 2.453125 22.914062 C 2.242188 22.40625 2.039062 21.898438 1.84375 21.390625 C 2.949219 21.253906 3.972656 20.894531 4.917969 20.316406 C 5.085938 20.832031 5.246094 21.351562 5.398438 21.871094 Z M 5.398438 21.871094 "/>
<path style=" stroke:none;fill-rule:nonzero;fill:rgb(0%,0%,0%);fill-opacity:1;" d="M 23.933594 14.644531 C 23.867188 14.410156 23.757812 14.191406 23.609375 13.996094 C 23.308594 13.609375 22.875 13.371094 22.417969 13.300781 C 22.757812 10.800781 22.695312 8.277344 22.226562 5.78125 C 22.195312 5.625 22.0625 5.503906 21.898438 5.492188 C 21.226562 5.449219 20.550781 5.414062 19.878906 5.382812 C 19.519531 3.867188 19 2.375 18.335938 0.9375 C 18.269531 0.789062 18.109375 0.707031 17.949219 0.738281 C 13.152344 1.625 8.359375 2.835938 3.714844 4.332031 C 3.558594 4.382812 3.457031 4.53125 3.46875 4.695312 C 3.648438 7.628906 4.367188 10.46875 5.601562 13.140625 C 5.660156 13.265625 5.789062 13.347656 5.925781 13.347656 C 5.945312 13.347656 5.96875 13.34375 5.988281 13.339844 C 6.234375 13.296875 6.464844 13.25 6.683594 13.210938 C 6.695312 13.292969 6.707031 13.378906 6.71875 13.460938 L 5.507812 14.054688 C 5.421875 14.09375 5.339844 14.144531 5.257812 14.195312 C 4.632812 14.601562 4.246094 15.28125 4.199219 16.015625 L 3.765625 16.132812 C 3.722656 16.023438 3.675781 15.910156 3.628906 15.800781 C 3.566406 15.652344 3.414062 15.5625 3.257812 15.582031 C 2.152344 15.71875 1.113281 16.085938 0.167969 16.675781 C 0.03125 16.761719 -0.03125 16.925781 0.015625 17.078125 C 0.605469 19.097656 1.316406 21.105469 2.125 23.050781 C 2.179688 23.183594 2.3125 23.269531 2.453125 23.269531 C 2.46875 23.269531 2.480469 23.269531 2.496094 23.265625 C 3.601562 23.132812 4.640625 22.765625 5.585938 22.175781 C 5.722656 22.089844 5.785156 21.925781 5.738281 21.773438 C 5.71875 21.707031 5.699219 21.640625 5.679688 21.574219 L 6.96875 21.097656 L 15.128906 22.089844 C 15.238281 22.105469 15.347656 22.113281 15.457031 22.113281 C 16.078125 22.113281 16.695312 21.898438 17.179688 21.507812 L 23.289062 16.609375 C 23.292969 16.605469 23.296875 16.601562 23.300781 16.597656 C 23.882812 16.132812 24.128906 15.367188 23.933594 14.644531 Z M 6.132812 12.589844 C 5.042969 10.15625 4.394531 7.582031 4.195312 4.925781 C 8.644531 3.503906 13.21875 2.347656 17.804688 1.488281 C 18.367188 2.742188 18.8125 4.039062 19.136719 5.351562 C 18.972656 5.34375 18.808594 5.335938 18.640625 5.332031 C 18.515625 4.832031 18.371094 4.328125 18.207031 3.839844 C 18.179688 3.746094 18.113281 3.671875 18.023438 3.628906 C 17.9375 3.585938 17.839844 3.582031 17.746094 3.617188 C 17.703125 3.632812 17.660156 3.644531 17.617188 3.65625 C 17.289062 3.738281 16.945312 3.691406 16.65625 3.515625 C 16.363281 3.34375 16.160156 3.066406 16.074219 2.738281 C 16.070312 2.71875 16.066406 2.699219 16.0625 2.675781 C 16.042969 2.585938 15.988281 2.503906 15.910156 2.449219 C 15.832031 2.398438 15.734375 2.378906 15.640625 2.398438 C 14.910156 2.554688 14.167969 2.714844 13.4375 2.882812 C 13.246094 2.925781 13.125 3.117188 13.167969 3.308594 C 13.214844 3.5 13.402344 3.621094 13.59375 3.578125 C 14.214844 3.433594 14.84375 3.296875 15.46875 3.164062 C 15.628906 3.566406 15.914062 3.902344 16.292969 4.128906 C 16.699219 4.371094 17.171875 4.457031 17.636719 4.378906 C 17.730469 4.6875 17.820312 4.996094 17.902344 5.308594 C 16.453125 5.265625 15 5.25 13.550781 5.261719 C 12.960938 4.609375 12.125 4.328125 11.335938 4.527344 C 10.859375 4.648438 10.445312 4.933594 10.144531 5.34375 C 9.164062 5.382812 8.191406 5.429688 7.214844 5.492188 C 7.160156 5.496094 7.109375 5.515625 7.0625 5.542969 C 7.0625 5.457031 7.058594 5.375 7.050781 5.289062 C 8.441406 4.882812 9.847656 4.496094 11.238281 4.144531 C 11.621094 4.046875 11.933594 3.972656 12.21875 3.902344 C 12.410156 3.855469 12.527344 3.664062 12.480469 3.472656 C 12.433594 3.28125 12.242188 3.164062 12.050781 3.210938 C 11.761719 3.28125 11.449219 3.359375 11.0625 3.457031 C 9.5625 3.835938 8.035156 4.253906 6.535156 4.699219 C 6.441406 4.726562 6.367188 4.789062 6.320312 4.875 C 6.277344 4.957031 6.269531 5.054688 6.296875 5.148438 C 6.300781 5.164062 6.304688 5.183594 6.308594 5.199219 C 6.3125 5.203125 6.3125 5.203125 6.3125 5.207031 C 6.394531 5.535156 6.34375 5.875 6.171875 6.164062 C 5.996094 6.457031 5.722656 6.664062 5.390625 6.746094 C 5.351562 6.757812 5.304688 6.765625 5.257812 6.773438 C 5.164062 6.785156 5.078125 6.835938 5.019531 6.914062 C 4.964844 6.992188 4.941406 7.089844 4.957031 7.1875 C 5.144531 8.21875 5.402344 9.246094 5.730469 10.238281 C 5.761719 10.332031 5.828125 10.40625 5.914062 10.449219 C 5.960938 10.472656 6.015625 10.484375 6.066406 10.484375 C 6.109375 10.484375 6.152344 10.476562 6.191406 10.460938 C 6.234375 10.445312 6.277344 10.429688 6.320312 10.421875 C 6.375 10.40625 6.429688 10.398438 6.484375 10.390625 C 6.488281 10.699219 6.496094 11.007812 6.511719 11.316406 C 6.484375 11.328125 6.453125 11.339844 6.425781 11.359375 C 6.292969 11.453125 6.242188 11.628906 6.300781 11.777344 C 6.34375 11.890625 6.441406 11.972656 6.558594 11.996094 C 6.570312 12.164062 6.585938 12.332031 6.601562 12.5 C 6.453125 12.53125 6.296875 12.558594 6.132812 12.589844 Z M 12.367188 5.28125 C 12 5.285156 11.632812 5.296875 11.265625 5.304688 C 11.34375 5.269531 11.425781 5.238281 11.507812 5.21875 C 11.792969 5.144531 12.089844 5.171875 12.367188 5.28125 Z M 6.304688 9.699219 C 6.066406 8.941406 5.871094 8.167969 5.71875 7.390625 C 6.152344 7.246094 6.511719 6.957031 6.757812 6.570312 C 6.597656 7.601562 6.507812 8.640625 6.488281 9.675781 C 6.425781 9.679688 6.363281 9.6875 6.304688 9.699219 Z M 7.539062 6.1875 C 12.199219 5.898438 16.917969 5.898438 21.574219 6.1875 C 21.992188 8.554688 22.03125 10.957031 21.695312 13.324219 C 21.492188 13.375 21.296875 13.457031 21.113281 13.574219 L 20.199219 14.167969 C 19.296875 14.214844 18.378906 14.25 17.46875 14.273438 C 17.269531 14.277344 17.117188 14.441406 17.121094 14.636719 C 17.125 14.832031 17.285156 14.984375 17.476562 14.984375 C 17.480469 14.984375 17.480469 14.984375 17.484375 14.984375 C 17.996094 14.96875 18.507812 14.953125 19.019531 14.933594 L 16.195312 16.765625 C 15.761719 17.046875 15.242188 17.15625 14.734375 17.066406 L 10.730469 16.371094 L 12.847656 15.097656 C 12.894531 15.070312 12.941406 15.039062 12.984375 15.007812 C 13.507812 15.015625 14.035156 15.019531 14.5625 15.019531 C 15.0625 15.019531 15.5625 15.015625 16.058594 15.011719 C 16.253906 15.007812 16.414062 14.847656 16.410156 14.648438 C 16.40625 14.453125 16.246094 14.296875 16.050781 14.300781 C 15.242188 14.308594 14.421875 14.3125 13.609375 14.304688 C 13.691406 14.15625 13.753906 13.996094 13.796875 13.832031 C 14.058594 13.835938 14.3125 13.835938 14.558594 13.835938 C 16.109375 13.835938 17.691406 13.800781 19.253906 13.738281 C 19.347656 13.734375 19.4375 13.691406 19.503906 13.621094 C 19.566406 13.550781 19.601562 13.457031 19.59375 13.363281 C 19.59375 13.34375 19.59375 13.324219 19.59375 13.300781 C 19.59375 12.601562 20.164062 12.035156 20.863281 12.035156 C 20.90625 12.035156 20.953125 12.035156 21 12.042969 C 21.09375 12.050781 21.191406 12.023438 21.265625 11.960938 C 21.339844 11.898438 21.382812 11.808594 21.390625 11.714844 C 21.464844 10.667969 21.464844 9.609375 21.390625 8.566406 C 21.382812 8.46875 21.339844 8.378906 21.265625 8.316406 C 21.191406 8.253906 21.09375 8.226562 21 8.238281 C 20.953125 8.242188 20.90625 8.242188 20.863281 8.242188 C 20.164062 8.242188 19.59375 7.675781 19.59375 6.976562 C 19.59375 6.957031 19.59375 6.9375 19.59375 6.917969 C 19.601562 6.820312 19.566406 6.726562 19.503906 6.65625 C 19.4375 6.585938 19.347656 6.546875 19.253906 6.542969 C 17.691406 6.476562 16.109375 6.441406 14.558594 6.441406 C 13.003906 6.441406 11.425781 6.476562 9.863281 6.542969 C 9.765625 6.546875 9.675781 6.585938 9.613281 6.65625 C 9.546875 6.726562 9.515625 6.820312 9.519531 6.917969 C 9.523438 6.9375 9.523438 6.957031 9.523438 6.976562 C 9.523438 7.675781 8.953125 8.242188 8.253906 8.242188 C 8.210938 8.242188 8.164062 8.242188 8.117188 8.238281 C 8.023438 8.226562 7.925781 8.253906 7.851562 8.316406 C 7.777344 8.378906 7.730469 8.46875 7.726562 8.566406 C 7.652344 9.609375 7.652344 10.667969 7.726562 11.714844 C 7.730469 11.808594 7.777344 11.898438 7.851562 11.960938 C 7.925781 12.023438 8.023438 12.050781 8.117188 12.042969 C 8.46875 12.003906 8.800781 12.109375 9.058594 12.320312 L 7.390625 13.132812 C 7.085938 10.824219 7.136719 8.492188 7.539062 6.1875 Z M 12.972656 10.140625 C 12.972656 9.105469 13.683594 8.261719 14.558594 8.261719 C 15.433594 8.261719 16.144531 9.105469 16.144531 10.140625 C 16.144531 11.175781 15.433594 12.015625 14.558594 12.015625 C 13.683594 12.015625 12.972656 11.175781 12.972656 10.140625 Z M 14.558594 12.726562 C 15.824219 12.726562 16.855469 11.566406 16.855469 10.140625 C 16.855469 8.710938 15.824219 7.550781 14.558594 7.550781 C 13.292969 7.550781 12.261719 8.710938 12.261719 10.140625 C 12.261719 10.582031 12.363281 11.003906 12.539062 11.367188 C 12.132812 11.210938 11.675781 11.179688 11.226562 11.300781 C 11.105469 11.335938 10.980469 11.382812 10.863281 11.4375 L 9.734375 11.988281 C 9.398438 11.605469 8.925781 11.371094 8.414062 11.328125 C 8.371094 10.539062 8.371094 9.738281 8.414062 8.949219 C 9.34375 8.875 10.09375 8.15625 10.214844 7.238281 C 11.664062 7.183594 13.121094 7.15625 14.558594 7.15625 C 15.992188 7.15625 17.453125 7.183594 18.898438 7.238281 C 19.023438 8.15625 19.773438 8.875 20.703125 8.949219 C 20.746094 9.738281 20.746094 10.539062 20.703125 11.328125 C 19.773438 11.402344 19.023438 12.125 18.898438 13.039062 C 17.453125 13.09375 15.992188 13.125 14.558594 13.125 C 14.332031 13.125 14.09375 13.121094 13.851562 13.121094 C 13.835938 12.925781 13.789062 12.734375 13.714844 12.546875 C 13.976562 12.664062 14.261719 12.726562 14.558594 12.726562 Z M 2.675781 22.523438 C 1.957031 20.765625 1.316406 18.960938 0.773438 17.140625 C 1.492188 16.730469 2.261719 16.457031 3.078125 16.328125 C 3.796875 18.082031 4.4375 19.890625 4.976562 21.710938 C 4.261719 22.117188 3.492188 22.390625 2.675781 22.523438 Z M 22.863281 16.035156 C 22.859375 16.039062 22.859375 16.042969 22.855469 16.042969 L 16.734375 20.953125 C 16.3125 21.292969 15.753906 21.453125 15.214844 21.386719 L 6.96875 20.382812 C 6.910156 20.375 6.855469 20.382812 6.800781 20.402344 L 5.472656 20.890625 C 5.042969 19.511719 4.5625 18.144531 4.03125 16.796875 L 4.652344 16.628906 C 4.8125 16.582031 4.921875 16.429688 4.910156 16.261719 C 4.871094 15.675781 5.152344 15.113281 5.648438 14.792969 C 5.703125 14.753906 5.761719 14.722656 5.820312 14.695312 L 11.175781 12.078125 C 11.253906 12.039062 11.332031 12.007812 11.414062 11.988281 C 12.03125 11.816406 12.675781 12.09375 12.984375 12.65625 C 13.335938 13.304688 13.113281 14.109375 12.480469 14.488281 L 9.542969 16.25 C 9.414062 16.328125 9.347656 16.472656 9.375 16.621094 C 9.402344 16.765625 9.519531 16.878906 9.664062 16.90625 L 14.613281 17.765625 C 15.296875 17.886719 15.996094 17.742188 16.582031 17.363281 L 21.5 14.171875 C 22 13.84375 22.679688 13.960938 23.046875 14.433594 C 23.140625 14.554688 23.207031 14.6875 23.246094 14.835938 C 23.367188 15.277344 23.21875 15.746094 22.863281 16.035156 Z M 22.863281 16.035156 "/>
<path style=" stroke:none;fill-rule:nonzero;fill:rgb(0%,0%,0%);fill-opacity:1;" d="M 10.625 14.300781 C 10.796875 14.558594 11.078125 14.699219 11.371094 14.699219 C 11.515625 14.699219 11.660156 14.664062 11.796875 14.59375 L 12.238281 14.359375 C 12.414062 14.265625 12.476562 14.050781 12.386719 13.875 C 12.292969 13.703125 12.078125 13.636719 11.90625 13.730469 L 11.464844 13.964844 C 11.378906 14.011719 11.269531 13.984375 11.214844 13.90625 C 10.921875 13.464844 10.828125 13.015625 10.824219 13.007812 C 10.789062 12.8125 10.601562 12.6875 10.410156 12.722656 C 10.214844 12.761719 10.089844 12.949219 10.128906 13.140625 C 10.132812 13.164062 10.242188 13.734375 10.625 14.300781 Z M 10.625 14.300781 "/>
<path style=" stroke:none;fill-rule:nonzero;fill:rgb(0%,0%,0%);fill-opacity:1;" d="M 3.460938 21.578125 C 3.625 21.578125 3.769531 21.460938 3.808594 21.300781 C 3.878906 20.984375 3.511719 20.75 3.253906 20.929688 C 3.121094 21.023438 3.070312 21.199219 3.128906 21.347656 C 3.179688 21.484375 3.3125 21.578125 3.460938 21.578125 Z M 3.460938 21.578125 "/>
<path style=" stroke:none;fill-rule:nonzero;fill:rgb(0%,0%,0%);fill-opacity:1;" d="M 17.304688 2.78125 C 17.472656 2.78125 17.617188 2.664062 17.652344 2.503906 C 17.726562 2.191406 17.359375 1.953125 17.101562 2.136719 C 16.96875 2.230469 16.917969 2.40625 16.972656 2.554688 C 17.027344 2.691406 17.160156 2.78125 17.304688 2.78125 Z M 17.304688 2.78125 "/>
<path style=" stroke:none;fill-rule:nonzero;fill:rgb(0%,0%,0%);fill-opacity:1;" d="M 5.429688 5.59375 C 5.5 5.28125 5.136719 5.042969 4.875 5.226562 C 4.746094 5.320312 4.691406 5.496094 4.75 5.644531 C 4.804688 5.78125 4.9375 5.871094 5.082031 5.871094 C 5.246094 5.871094 5.390625 5.753906 5.429688 5.59375 Z M 5.429688 5.59375 "/>
<path style=" stroke:none;fill-rule:nonzero;fill:rgb(0%,0%,0%);fill-opacity:1;" d="M 20.65625 13.011719 C 20.523438 13.105469 20.472656 13.28125 20.53125 13.429688 C 20.582031 13.566406 20.714844 13.65625 20.863281 13.65625 C 21.027344 13.65625 21.171875 13.539062 21.207031 13.378906 C 21.28125 13.066406 20.914062 12.828125 20.65625 13.011719 Z M 20.65625 13.011719 "/>
<path style=" stroke:none;fill-rule:nonzero;fill:rgb(0%,0%,0%);fill-opacity:1;" d="M 20.863281 7.332031 C 21.027344 7.332031 21.171875 7.214844 21.207031 7.054688 C 21.28125 6.742188 20.914062 6.503906 20.65625 6.6875 C 20.523438 6.777344 20.472656 6.953125 20.53125 7.105469 C 20.582031 7.238281 20.714844 7.332031 20.863281 7.332031 Z M 20.863281 7.332031 "/>
<path style=" stroke:none;fill-rule:nonzero;fill:rgb(0%,0%,0%);fill-opacity:1;" d="M 8.253906 7.332031 C 8.417969 7.332031 8.5625 7.214844 8.601562 7.054688 C 8.671875 6.742188 8.304688 6.503906 8.046875 6.6875 C 7.917969 6.777344 7.863281 6.953125 7.921875 7.105469 C 7.976562 7.238281 8.109375 7.332031 8.253906 7.332031 Z M 8.253906 7.332031 "/>
<path style=" stroke:none;fill-rule:nonzero;fill:rgb(0%,0%,0%);fill-opacity:1;" d="M 17.988281 10.496094 L 19.503906 10.496094 C 19.699219 10.496094 19.859375 10.335938 19.859375 10.140625 C 19.859375 9.941406 19.699219 9.785156 19.503906 9.785156 L 17.988281 9.785156 C 17.792969 9.785156 17.632812 9.941406 17.632812 10.140625 C 17.632812 10.335938 17.792969 10.496094 17.988281 10.496094 Z M 17.988281 10.496094 "/>
<path style=" stroke:none;fill-rule:nonzero;fill:rgb(0%,0%,0%);fill-opacity:1;" d="M 11.128906 9.785156 L 9.613281 9.785156 C 9.417969 9.785156 9.257812 9.941406 9.257812 10.140625 C 9.257812 10.335938 9.417969 10.496094 9.613281 10.496094 L 11.128906 10.496094 C 11.324219 10.496094 11.484375 10.335938 11.484375 10.140625 C 11.484375 9.941406 11.324219 9.785156 11.128906 9.785156 Z M 11.128906 9.785156 "/>
</g>
</svg>
