<?xml version="1.0" encoding="UTF-8"?>
<svg xmlns="http://www.w3.org/2000/svg" xmlns:xlink="http://www.w3.org/1999/xlink" width="24px" height="24px" viewBox="0 0 24 24" version="1.1">
<g id="surface1">
<path style=" stroke:none;fill-rule:nonzero;fill:rgb(0%,0%,0%);fill-opacity:1;" d="M 8.203125 11.214844 L 6.304688 11.1875 C 6.144531 11.183594 5.976562 11.039062 5.953125 10.878906 L 5.519531 8.121094 C 5.492188 7.949219 5.421875 7.828125 5.335938 7.75 C 5.179688 7.527344 4.917969 7.382812 4.625 7.398438 L 2.230469 7.5 C 1.769531 7.519531 1.394531 7.914062 1.394531 8.375 L 1.398438 14.109375 C 1.398438 14.125 1.398438 14.136719 1.398438 14.148438 C 1.398438 14.15625 1.398438 14.164062 1.398438 14.171875 C 1.394531 14.472656 1.378906 14.976562 1.363281 15.292969 L 1.285156 16.671875 C 1.269531 16.960938 1.15625 17.429688 1.039062 17.695312 L 0.0703125 19.886719 C -0.0234375 20.097656 -0.0234375 20.332031 0.0742188 20.527344 C 0.167969 20.726562 0.351562 20.867188 0.578125 20.925781 L 0.667969 20.949219 C 0.738281 20.964844 0.8125 20.972656 0.886719 20.972656 C 1.269531 20.972656 1.632812 20.753906 1.792969 20.425781 L 2.699219 18.578125 C 2.847656 18.277344 3.03125 17.761719 3.109375 17.433594 L 3.625 15.296875 L 4.871094 17.203125 C 5.023438 17.433594 5.183594 17.878906 5.214844 18.15625 L 5.453125 20.28125 C 5.503906 20.730469 5.914062 21.09375 6.363281 21.09375 L 6.5 21.09375 C 6.730469 21.09375 6.9375 21 7.089844 20.835938 C 7.238281 20.667969 7.308594 20.449219 7.285156 20.222656 L 7.03125 17.640625 C 6.996094 17.296875 6.871094 16.773438 6.75 16.449219 L 5.542969 13.304688 L 5.539062 12.6875 L 8.273438 12.585938 C 8.507812 12.574219 8.726562 12.480469 8.867188 12.320312 C 8.980469 12.195312 9.035156 12.035156 9.023438 11.875 C 8.996094 11.511719 8.632812 11.222656 8.203125 11.214844 Z M 6.363281 20.828125 Z M 6.363281 20.828125 "/>
<path style=" stroke:none;fill-rule:nonzero;fill:rgb(0%,0%,0%);fill-opacity:1;" d="M 2.949219 6.882812 C 3.179688 6.882812 3.410156 6.84375 3.628906 6.765625 C 4.144531 6.582031 4.554688 6.210938 4.789062 5.71875 C 4.945312 5.390625 5.011719 5.035156 4.984375 4.679688 L 5.5 4.621094 C 5.800781 4.585938 6.109375 4.347656 6.214844 4.058594 L 6.375 3.617188 C 6.4375 3.449219 6.421875 3.277344 6.328125 3.148438 C 6.242188 3.019531 6.09375 2.949219 5.921875 2.949219 C 5.902344 2.949219 5.878906 2.949219 5.859375 2.949219 L 4.050781 3.121094 C 3.730469 2.914062 3.347656 2.796875 2.949219 2.796875 C 2.714844 2.796875 2.488281 2.835938 2.265625 2.914062 C 1.207031 3.289062 0.648438 4.460938 1.023438 5.519531 C 1.3125 6.335938 2.085938 6.882812 2.949219 6.882812 Z M 2.949219 6.882812 "/>
<path style=" stroke:none;fill-rule:nonzero;fill:rgb(0%,0%,0%);fill-opacity:1;" d="M 11.207031 7.292969 C 11.175781 6.867188 10.804688 6.519531 10.375 6.519531 L 6.960938 6.527344 C 6.746094 6.527344 6.546875 6.613281 6.402344 6.765625 C 6.261719 6.921875 6.1875 7.125 6.203125 7.339844 L 6.378906 9.832031 C 6.40625 10.257812 6.777344 10.605469 7.207031 10.605469 L 10.625 10.597656 C 10.839844 10.597656 11.035156 10.515625 11.179688 10.359375 C 11.324219 10.203125 11.394531 10 11.378906 9.785156 Z M 7.207031 10.339844 Z M 7.207031 10.339844 "/>
<path style=" stroke:none;fill-rule:nonzero;fill:rgb(0%,0%,0%);fill-opacity:1;" d="M 19.492188 7.558594 C 20.675781 7.558594 21.640625 6.59375 21.640625 5.410156 C 21.640625 4.226562 20.675781 3.261719 19.492188 3.261719 C 18.308594 3.261719 17.34375 4.226562 17.34375 5.410156 C 17.34375 6.59375 18.308594 7.558594 19.492188 7.558594 Z M 19.492188 7.558594 "/>
<path style=" stroke:none;fill-rule:nonzero;fill:rgb(0%,0%,0%);fill-opacity:1;" d="M 23.816406 10.664062 L 22.347656 8.613281 C 22.164062 8.359375 21.789062 8.070312 21.15625 8.070312 C 20.265625 8.070312 17.605469 8.070312 17.605469 8.070312 C 17.289062 8.070312 16.875 8.230469 16.660156 8.339844 L 15.53125 8.914062 C 15.425781 8.96875 15.253906 9.003906 15.085938 9.003906 C 14.964844 9.003906 14.855469 8.984375 14.777344 8.957031 L 12.949219 8.273438 C 12.863281 8.242188 12.777344 8.226562 12.691406 8.226562 C 12.347656 8.226562 12.09375 8.496094 12.09375 8.867188 L 12.09375 9.003906 C 12.09375 9.402344 12.390625 9.828125 12.765625 9.964844 L 14.617188 10.652344 C 14.785156 10.714844 15.003906 10.746094 15.234375 10.746094 C 15.441406 10.746094 15.640625 10.71875 15.792969 10.667969 L 17.234375 10.175781 L 17.234375 20.25 C 17.234375 20.773438 17.660156 21.203125 18.1875 21.203125 L 18.410156 21.203125 C 18.933594 21.203125 19.363281 20.773438 19.363281 20.25 L 19.363281 15.234375 L 19.625 15.234375 L 19.625 20.25 C 19.625 20.773438 20.050781 21.203125 20.574219 21.203125 L 20.800781 21.203125 C 21.324219 21.203125 21.753906 20.773438 21.753906 20.25 L 21.753906 14.152344 C 22.117188 14.125 22.519531 13.890625 22.714844 13.589844 L 23.847656 11.835938 C 24.0625 11.5 24.050781 10.984375 23.816406 10.664062 Z M 21.753906 10.417969 L 22.246094 11.125 C 22.347656 11.273438 22.347656 11.542969 22.246094 11.6875 L 21.753906 12.382812 Z M 21.753906 10.417969 "/>
</g>
</svg>
