<?xml version="1.0" encoding="UTF-8"?>
<svg xmlns="http://www.w3.org/2000/svg" xmlns:xlink="http://www.w3.org/1999/xlink" width="24px" height="24px" viewBox="0 0 24 24" version="1.1">
<g id="surface1">
<rect x="0" y="0" width="24" height="24" style="fill:rgb(37.254902%,4.313725%,44.705882%);fill-opacity:1;stroke:none;"/>
<path style=" stroke:none;fill-rule:nonzero;fill:rgb(100%,100%,100%);fill-opacity:1;" d="M 17.878906 15.328125 C 17.019531 15.394531 16.160156 15.464844 15.304688 15.542969 C 14.777344 15.59375 14.253906 15.671875 13.707031 15.738281 C 13.761719 15.351562 13.816406 14.996094 13.875 14.613281 L 14.023438 14.71875 C 14.550781 15.09375 15.058594 15.042969 15.488281 14.566406 C 15.816406 14.195312 15.996094 13.738281 16.136719 13.273438 C 16.355469 12.53125 16.507812 11.78125 16.300781 11.007812 C 16.121094 10.335938 15.46875 10.164062 14.964844 10.652344 C 14.863281 10.753906 14.757812 10.847656 14.671875 10.929688 C 14.648438 10.851562 14.648438 10.738281 14.59375 10.683594 C 14.484375 10.570312 14.324219 10.527344 14.175781 10.574219 C 14.027344 10.617188 13.914062 10.738281 13.886719 10.890625 C 13.699219 11.835938 13.519531 12.78125 13.324219 13.722656 C 13.300781 13.839844 13.203125 13.953125 13.117188 14.039062 C 13.054688 14.09375 12.949219 14.105469 12.863281 14.136719 C 12.832031 14.042969 12.769531 13.945312 12.777344 13.859375 C 12.816406 13.527344 12.871094 13.195312 12.933594 12.863281 C 13.050781 12.289062 13.179688 11.71875 13.292969 11.140625 C 13.335938 10.933594 13.25 10.800781 13.03125 10.746094 C 12.71875 10.671875 12.664062 10.691406 12.460938 11.054688 C 11.917969 10.734375 11.527344 10.789062 11.082031 11.25 C 10.703125 11.640625 10.472656 12.121094 10.292969 12.625 C 10.042969 13.320312 9.910156 14.03125 10.085938 14.769531 C 10.160156 15.097656 10.335938 15.335938 10.675781 15.4375 C 11.039062 15.542969 11.339844 15.441406 11.59375 15.175781 C 11.699219 15.046875 11.800781 14.914062 11.894531 14.773438 C 11.964844 15.035156 12.121094 15.238281 12.390625 15.222656 C 12.625 15.207031 12.851562 15.09375 13.089844 15.023438 C 13.039062 15.226562 13 15.429688 12.972656 15.632812 C 12.953125 15.820312 12.863281 15.875 12.691406 15.902344 C 11.734375 16.046875 10.777344 16.199219 9.816406 16.355469 C 9.515625 16.402344 9.214844 16.460938 8.871094 16.519531 C 9.011719 16.023438 9.140625 15.574219 9.265625 15.121094 C 9.605469 13.894531 9.953125 12.664062 10.285156 11.4375 C 10.371094 11.117188 10.234375 10.988281 9.914062 11.066406 C 9.53125 11.160156 9.296875 11.398438 9.164062 11.773438 C 8.902344 12.515625 8.632812 13.257812 8.332031 13.992188 C 8.246094 14.195312 8.070312 14.378906 7.902344 14.535156 C 7.820312 14.605469 7.625 14.644531 7.546875 14.597656 C 7.46875 14.546875 7.414062 14.367188 7.425781 14.253906 C 7.453125 14.027344 7.5 13.804688 7.566406 13.589844 C 7.6875 13.136719 7.835938 12.691406 7.941406 12.234375 C 8.007812 11.933594 7.761719 11.699219 7.417969 11.683594 C 7.195312 11.671875 7.128906 11.78125 7.113281 12.132812 C 7.101562 12.300781 7.070312 12.46875 7.019531 12.632812 C 6.941406 12.878906 6.828125 13.113281 6.761719 13.363281 C 6.628906 13.828125 6.519531 14.300781 6.429688 14.777344 C 6.375 15.128906 6.449219 15.480469 6.785156 15.6875 C 7.117188 15.898438 7.449219 15.8125 7.746094 15.589844 C 7.910156 15.46875 8.0625 15.324219 8.25 15.164062 C 8.074219 15.699219 7.917969 16.203125 7.742188 16.703125 C 7.714844 16.777344 7.617188 16.835938 7.542969 16.875 C 7.117188 17.109375 6.667969 17.300781 6.269531 17.570312 C 5.367188 18.167969 4.738281 18.984375 4.511719 20.078125 C 4.414062 20.558594 4.503906 20.992188 4.902344 21.304688 C 5.3125 21.632812 5.765625 21.582031 6.207031 21.359375 C 6.636719 21.152344 6.941406 20.804688 7.222656 20.4375 C 7.800781 19.683594 8.136719 18.816406 8.425781 17.929688 C 8.480469 17.757812 8.566406 17.671875 8.738281 17.636719 C 9.726562 17.441406 10.714844 17.230469 11.703125 17.035156 C 12.03125 16.96875 12.359375 16.921875 12.707031 16.867188 C 12.714844 16.984375 12.695312 17.070312 12.726562 17.136719 C 12.78125 17.253906 12.84375 17.421875 12.945312 17.457031 C 13.046875 17.492188 13.21875 17.417969 13.308594 17.335938 C 13.410156 17.226562 13.476562 17.09375 13.503906 16.945312 C 13.539062 16.796875 13.617188 16.742188 13.753906 16.722656 C 14.65625 16.609375 15.554688 16.492188 16.453125 16.371094 C 16.988281 16.300781 17.527344 16.238281 18.054688 16.140625 C 18.332031 16.09375 18.417969 15.851562 18.308594 15.597656 C 18.246094 15.417969 18.066406 15.304688 17.878906 15.328125 Z M 14.140625 13.851562 C 14.308594 13.234375 14.460938 12.613281 14.65625 12.007812 C 14.726562 11.796875 14.890625 11.601562 15.050781 11.4375 C 15.242188 11.246094 15.429688 11.3125 15.5 11.574219 C 15.523438 11.691406 15.539062 11.808594 15.550781 11.929688 C 15.523438 12.511719 15.371094 13.085938 15.105469 13.605469 C 14.960938 13.90625 14.738281 14.140625 14.359375 14.109375 C 14.207031 14.09375 14.09375 14.027344 14.140625 13.851562 Z M 12.320312 11.957031 C 12.117188 12.644531 11.894531 13.324219 11.671875 14.003906 C 11.636719 14.09375 11.582031 14.171875 11.515625 14.238281 C 11.351562 14.414062 11.113281 14.394531 11.015625 14.175781 C 10.933594 14.003906 10.902344 13.808594 10.871094 13.675781 C 10.960938 12.988281 11.097656 12.390625 11.578125 11.941406 C 11.707031 11.828125 11.855469 11.742188 12.015625 11.683594 C 12.210938 11.613281 12.378906 11.757812 12.320312 11.957031 Z M 6.210938 20.160156 C 6.097656 20.292969 5.96875 20.402344 5.820312 20.492188 C 5.734375 20.546875 5.5625 20.578125 5.5 20.527344 C 5.417969 20.441406 5.378906 20.320312 5.398438 20.199219 C 5.453125 19.964844 5.542969 19.738281 5.660156 19.527344 C 6.046875 18.851562 6.609375 18.359375 7.378906 18.007812 C 7.074219 18.824219 6.734375 19.546875 6.210938 20.160156 Z M 17.382812 13.015625 C 17.410156 12.871094 17.484375 12.808594 17.640625 12.773438 C 18.539062 12.585938 19.234375 11.867188 19.394531 10.960938 C 19.496094 10.398438 19.164062 9.992188 18.59375 9.96875 C 18.292969 9.949219 17.996094 10.054688 17.777344 10.261719 C 16.871094 11.097656 16.515625 12.171875 16.421875 13.355469 C 16.441406 13.554688 16.453125 13.742188 16.484375 13.925781 C 16.59375 14.570312 17.09375 14.894531 17.722656 14.734375 C 18.257812 14.597656 18.675781 14.277344 19.046875 13.882812 C 19.296875 13.621094 19.328125 13.5 19.179688 13.175781 C 19.058594 12.902344 18.949219 12.898438 18.734375 13.109375 C 18.53125 13.316406 18.3125 13.5 18.074219 13.664062 C 17.902344 13.785156 17.679688 13.867188 17.484375 13.714844 C 17.289062 13.5625 17.332031 13.324219 17.355469 13.105469 C 17.355469 13.074219 17.375 13.046875 17.382812 13.015625 Z M 18.148438 10.976562 C 18.226562 10.847656 18.386719 10.730469 18.515625 10.839844 C 18.59375 10.902344 18.613281 11.117188 18.574219 11.234375 C 18.417969 11.652344 18.074219 11.867188 17.667969 11.988281 L 17.582031 11.925781 C 17.765625 11.609375 17.945312 11.285156 18.144531 10.976562 Z M 18.148438 10.976562 "/>
<path style=" stroke:none;fill-rule:nonzero;fill:rgb(0.392157%,81.568627%,70.980392%);fill-opacity:1;" d="M 12.796875 2.519531 C 11.476562 2.519531 10.28125 3.300781 9.753906 4.511719 C 9.230469 5.722656 9.472656 7.128906 10.371094 8.09375 L 10.292969 9.5 C 10.289062 9.558594 10.320312 9.613281 10.371094 9.640625 C 10.421875 9.671875 10.484375 9.667969 10.535156 9.632812 L 11.578125 8.917969 C 12.820312 9.40625 14.230469 9.101562 15.164062 8.148438 C 16.09375 7.195312 16.363281 5.777344 15.847656 4.550781 C 15.332031 3.320312 14.128906 2.519531 12.796875 2.519531 Z M 13.035156 7.152344 C 12.957031 7.292969 12.835938 7.40625 12.691406 7.480469 C 12.53125 7.558594 12.351562 7.597656 12.171875 7.589844 C 11.859375 7.589844 11.605469 7.496094 11.417969 7.3125 C 11.230469 7.128906 11.132812 6.875 11.125 6.5625 C 11.121094 6.519531 11.136719 6.480469 11.164062 6.445312 C 11.207031 6.402344 11.265625 6.378906 11.328125 6.382812 C 11.394531 6.375 11.460938 6.394531 11.515625 6.4375 C 11.539062 6.460938 11.554688 6.496094 11.554688 6.53125 C 11.5625 6.648438 11.597656 6.761719 11.652344 6.859375 C 11.707031 6.941406 11.78125 7.003906 11.871094 7.046875 C 11.972656 7.097656 12.082031 7.121094 12.195312 7.121094 C 12.367188 7.121094 12.5 7.082031 12.589844 7 C 12.679688 6.929688 12.726562 6.816406 12.722656 6.703125 C 12.726562 6.640625 12.710938 6.574219 12.675781 6.519531 C 12.640625 6.464844 12.589844 6.417969 12.53125 6.390625 C 12.375 6.320312 12.214844 6.265625 12.050781 6.222656 C 11.8125 6.15625 11.652344 6.089844 11.546875 6.019531 C 11.445312 5.949219 11.359375 5.855469 11.304688 5.742188 C 11.246094 5.628906 11.214844 5.5 11.214844 5.371094 C 11.210938 5.140625 11.300781 4.917969 11.464844 4.757812 C 11.632812 4.601562 11.855469 4.523438 12.128906 4.523438 C 12.300781 4.519531 12.472656 4.554688 12.625 4.632812 C 12.765625 4.703125 12.882812 4.8125 12.964844 4.953125 C 13.046875 5.101562 13.089844 5.265625 13.089844 5.4375 C 13.09375 5.484375 13.078125 5.527344 13.046875 5.5625 C 13.007812 5.605469 12.949219 5.628906 12.894531 5.625 C 12.824219 5.632812 12.757812 5.613281 12.703125 5.570312 C 12.675781 5.546875 12.65625 5.507812 12.65625 5.46875 C 12.640625 5.304688 12.589844 5.183594 12.503906 5.105469 C 12.421875 5.03125 12.296875 4.992188 12.140625 4.992188 C 11.980469 4.992188 11.851562 5.023438 11.769531 5.09375 C 11.695312 5.152344 11.652344 5.246094 11.652344 5.34375 C 11.648438 5.425781 11.675781 5.507812 11.734375 5.566406 C 11.777344 5.601562 11.886719 5.664062 12.175781 5.742188 C 12.351562 5.785156 12.519531 5.839844 12.683594 5.910156 C 12.832031 5.980469 12.953125 6.085938 13.042969 6.222656 C 13.125 6.359375 13.167969 6.515625 13.164062 6.679688 C 13.164062 6.84375 13.121094 7.007812 13.035156 7.152344 Z M 15.011719 5.015625 L 13.726562 7.347656 C 13.6875 7.421875 13.609375 7.46875 13.523438 7.46875 C 13.441406 7.46875 13.367188 7.425781 13.324219 7.355469 C 13.28125 7.285156 13.28125 7.195312 13.320312 7.125 L 14.601562 4.792969 C 14.664062 4.679688 14.804688 4.640625 14.917969 4.703125 C 14.972656 4.730469 15.011719 4.78125 15.03125 4.839844 C 15.046875 4.898438 15.039062 4.964844 15.011719 5.019531 Z M 15.011719 5.015625 "/>
</g>
</svg>
